<svg width="17" height="19" viewBox="0 0 17 19" fill="none" xmlns="http://www.w3.org/2000/svg">
<path d="M10.0999 8.78372C10.1781 8.47506 10.1747 8.1514 10.0902 7.84443C10.0057 7.53747 9.84287 7.25771 9.61773 7.03258C9.39259 6.80744 9.11284 6.64463 8.80587 6.56011C8.49891 6.47558 8.17525 6.47223 7.86659 6.55038C7.22493 6.70872 6.69993 7.23372 6.54159 7.87538C6.46344 8.18404 6.46679 8.50769 6.55132 8.81466C6.63584 9.12163 6.79865 9.40138 7.02379 9.62652C7.24892 9.85166 7.52868 10.0145 7.83565 10.099C8.14261 10.1835 8.46627 10.1869 8.77493 10.1087C9.42493 9.95038 9.94993 9.42538 10.0999 8.78372Z" stroke="black" stroke-linecap="round" stroke-linejoin="round"/>
<path d="M13.3333 13.6583C14.0654 12.9764 14.649 12.1508 15.0476 11.2332C15.4462 10.3155 15.6513 9.32549 15.65 8.325C15.65 7.36307 15.4605 6.41055 15.0924 5.52184C14.7243 4.63313 14.1847 3.82563 13.5046 3.14544C12.8244 2.46525 12.0169 1.9257 11.1282 1.55758C10.2394 1.18947 9.28693 1 8.325 1C7.36307 1 6.41055 1.18947 5.52184 1.55758C4.63313 1.9257 3.82563 2.46525 3.14544 3.14544C2.46525 3.82563 1.9257 4.63313 1.55758 5.52184C1.18947 6.41055 1 7.36307 1 8.325C1 10.4417 1.9 12.35 3.34167 13.6833" stroke="black" stroke-linecap="round" stroke-linejoin="round"/>
<path d="M4.99167 11.4583C4.225 10.6417 3.75 9.54167 3.75 8.325C3.75 5.8 5.8 3.75 8.325 3.75C10.85 3.75 12.9 5.8 12.9 8.325C12.9 9.54167 12.425 10.6333 11.6583 11.4583M6.90833 13.2167L5.70833 14.7083C4.75833 15.9 5.6 17.6583 7.125 17.6583H9.51667C11.0417 17.6583 11.8917 15.8917 10.9333 14.7083L9.73333 13.2167C9.01667 12.3083 7.63333 12.3083 6.90833 13.2167Z" stroke="black" stroke-linecap="round" stroke-linejoin="round"/>
</svg>
