<svg width="18" height="18" viewBox="0 0 18 18" fill="none" xmlns="http://www.w3.org/2000/svg">
<g clip-path="url(#clip0_655_146)">
<path d="M1.5 16.5H16.5M2.3325 16.5V9.75C2.3325 8.505 3.45 7.5 4.83 7.5H13.1625C14.5425 7.5 15.66 8.505 15.66 9.75V16.5M4.17 7.5V5.3775C4.17 4.4775 4.98 3.75 5.985 3.75H12.0225C13.02 3.75 13.83 4.4775 13.83 5.3775V7.5" stroke="black" stroke-width="1.5" stroke-linecap="round" stroke-linejoin="round"/>
<path d="M2.64751 10.485L2.92501 10.4925C3.48001 10.5 3.92251 10.95 3.92251 11.505V11.7525C3.92251 12.021 4.02918 12.2786 4.21906 12.4684C4.40894 12.6583 4.66647 12.765 4.93501 12.765C5.20354 12.765 5.46107 12.6583 5.65095 12.4684C5.84083 12.2786 5.94751 12.021 5.94751 11.7525V11.52C5.94751 11.2515 6.05418 10.9939 6.24406 10.8041C6.43394 10.6142 6.69148 10.5075 6.96001 10.5075C7.22854 10.5075 7.48607 10.6142 7.67595 10.8041C7.86583 10.9939 7.97251 11.2515 7.97251 11.52V11.7525C7.97251 12.021 8.07918 12.2786 8.26906 12.4684C8.45894 12.6583 8.71647 12.765 8.98501 12.765C9.25354 12.765 9.51107 12.6583 9.70095 12.4684C9.89083 12.2786 9.99751 12.021 9.99751 11.7525V11.52C9.99751 11.2515 10.1042 10.9939 10.2941 10.8041C10.4839 10.6142 10.7415 10.5075 11.01 10.5075C11.2785 10.5075 11.5361 10.6142 11.726 10.8041C11.9158 10.9939 12.0225 11.2515 12.0225 11.52V11.7525C12.0225 12.021 12.1292 12.2786 12.3191 12.4684C12.5089 12.6583 12.7665 12.765 13.035 12.765C13.3035 12.765 13.5611 12.6583 13.751 12.4684C13.9408 12.2786 14.0475 12.021 14.0475 11.7525V11.52C14.0475 10.965 14.4975 10.5075 15.06 10.5075H15.3975M6.00001 3.75V2.25M12 3.75V2.25M9.00001 3.75V1.5" stroke="black" stroke-width="1.5" stroke-linecap="round" stroke-linejoin="round"/>
</g>
<defs>
<clipPath id="clip0_655_146">
<rect width="18" height="18" fill="white"/>
</clipPath>
</defs>
</svg>
