<svg width="102" height="32" viewBox="0 0 102 32" fill="none" xmlns="http://www.w3.org/2000/svg">
<path d="M2.92869 8.23332H1L1 32L101 32V11.1269L98.107 18.3603L96.9576 21.2536H95.6101L92.9151 18.3603L91.0287 21.2536L85.3693 21.2539L82.4048 18.3604L80.7878 14.0196L78.4343 16.1903L76.3128 18.3603L75.6502 21.6667L74.3028 21.2536H72.6482L69.5623 11.1269L68.598 14.0203L67.055 11.1269L65.8978 16.1903L62.8119 7.51027L61.0761 11.1269H57.7973L54.3257 3.89361L52.2041 7.51027L49.4101 5.34L46.0057 11.1267L43.8169 1L42.2328 11.1267L31.6662 15.4666L30.3161 12.5733H28.966L25.8801 8.23332L22.7942 8.23332L21.637 12.5733L17.0081 3.89332L15.0794 15.4666L14.1151 11.1267H11.9935L10.0648 1L8.13615 9.67999L7.17181 5.34H4.66451L2.92869 8.23332Z" fill="#EF6D63" fill-opacity="0.08"/>
<path d="M1 8.23328H2.92869L4.66451 5.33996H7.17181L8.13615 9.67995L10.0648 0.999961L11.9935 11.1266L14.1151 11.1266L15.0794 15.4666L17.0081 3.89329L21.637 12.5733L22.7942 8.23328H25.8801L28.966 12.5733H30.3161L31.6662 15.4666L42.2328 11.1266L43.8169 0.999961L46.0057 11.1266L49.4101 5.33996L52.2041 7.51023L54.3257 3.89357L57.7973 11.1269H61.0761L62.8119 7.51023L65.8978 16.1902L67.055 11.1269L68.598 14.0202L69.5623 11.1269L72.6482 21.2535H74.3028L75.6502 21.6666L76.3128 18.3602L78.4343 16.1902L80.7878 14.0196L82.4048 18.3603L85.3693 21.2538L91.0287 21.2536L92.9151 18.3602L95.6101 21.2535H96.9576L98.107 18.3602L101 11.1269" stroke="#B26752" stroke-linecap="round"/>
</svg>
