<svg width="20" height="20" viewBox="0 0 20 20" fill="none" xmlns="http://www.w3.org/2000/svg">
<g clip-path="url(#clip0_275_531)">
<path d="M18.1335 3.38978H17.2853V1.86434C17.2853 0.833789 16.4504 0 15.419 0H3.20318C2.17158 0 1.33694 0.834021 1.33694 1.86434V3.38978H0.488694C-0.152523 3.38978 -0.170032 4.40674 0.488694 4.40674H1.33694V7.45761H0.488694C-0.13734 7.45761 -0.177303 8.47456 0.488694 8.47456H1.33694V11.5254H0.488694C-0.155489 11.5254 -0.170265 12.5424 0.488694 12.5424H1.33694V15.5933H0.488694C-0.160492 15.5933 -0.16439 16.6102 0.488694 16.6102H1.33694V18.1357C1.33694 19.1662 2.17181 20 3.20318 20H15.419C16.4506 20 17.2853 19.166 17.2853 18.1357V16.6102H18.1338C19.1654 16.6102 20 15.7762 20 14.7459V5.25389C20 4.22357 19.1654 3.38955 18.1338 3.38955L18.1335 3.38978ZM5.40867 18.9829H3.20294C2.73462 18.9829 2.3547 18.6032 2.3547 18.1355V16.6101H3.20294C3.83782 16.6101 3.87738 15.5931 3.20294 15.5931H2.3547V12.5423H3.20294C3.8562 12.5423 3.86417 11.5253 3.20294 11.5253H2.3547V8.47445H3.20294C3.83986 8.47445 3.87325 7.45749 3.20294 7.45749H2.3547V4.40662H3.20294C3.83078 4.40662 3.87848 3.38966 3.20294 3.38966H2.3547V1.86423C2.3547 1.39638 2.73486 1.01684 3.20294 1.01684H5.40867V18.9829ZM16.2674 18.1355C16.2674 18.6034 15.8873 18.9829 15.4192 18.9829H6.42654V1.01649L15.4186 1.01672C15.8869 1.01672 16.2668 1.39649 16.2668 1.86411L16.2674 18.1355ZM18.9819 14.7458C18.9819 15.2136 18.6017 15.5931 18.1336 15.5931H17.2854V12.5423H18.1336C18.602 12.5423 18.9819 12.922 18.9819 13.3897V14.7458ZM18.9819 11.7355C18.724 11.6068 18.439 11.5253 18.1336 11.5253H17.2854V8.47444H18.1336C18.602 8.47444 18.9819 8.85421 18.9819 9.32182V11.7355ZM18.9819 7.66768C18.724 7.53898 18.439 7.45748 18.1336 7.45748H17.2854V4.40661H18.1336C18.602 4.40661 18.9819 4.78638 18.9819 5.254V7.66768Z" fill="black" fill-opacity="0.8"/>
<path d="M14.0616 2.71167H8.63241C8.35133 2.71167 8.12341 2.93935 8.12341 3.22015V5.93211C8.12341 6.21291 8.35133 6.44059 8.63241 6.44059H14.0616C14.3427 6.44059 14.5706 6.21291 14.5706 5.93211V3.22015C14.5706 2.93958 14.3427 2.71167 14.0616 2.71167ZM13.5526 5.42363H9.1414V3.72863H13.5526V5.42363Z" fill="black" fill-opacity="0.8"/>
<path d="M14.0616 16.2715H8.63239C7.99978 16.2715 7.98978 17.2884 8.63239 17.2884H14.0616C14.7142 17.2884 14.7233 16.2715 14.0616 16.2715Z" fill="black" fill-opacity="0.8"/>
<path d="M14.0615 13.5593H11.3471C10.6976 13.5593 10.6856 14.5763 11.3471 14.5763H14.0615C14.7142 14.5763 14.7221 13.5593 14.0615 13.5593Z" fill="black" fill-opacity="0.8"/>
</g>
<defs>
<clipPath id="clip0_275_531">
<rect width="20" height="20" fill="white"/>
</clipPath>
</defs>
</svg>
