<svg width="15" height="22" viewBox="0 0 15 22" fill="none" xmlns="http://www.w3.org/2000/svg">
<path d="M10.3125 5.5C10.6917 5.5 11 5.8083 11 6.1875V8.25C11 8.6292 10.6917 8.9375 10.3125 8.9375H8.25C7.8708 8.9375 7.5625 8.6292 7.5625 8.25V6.1875C7.5625 5.8083 7.8708 5.5 8.25 5.5H10.3125ZM10.3125 4.8125H8.25C7.49069 4.8125 6.875 5.42803 6.875 6.1875V8.25C6.875 9.00931 7.49069 9.625 8.25 9.625H10.3125C11.0718 9.625 11.6875 9.00931 11.6875 8.25V6.1875C11.6875 5.42803 11.0718 4.8125 10.3125 4.8125Z" fill="black"/>
<path d="M12.9957 13.7462C12.8352 13.7224 12.675 13.6992 12.5148 13.676C12.4939 13.6728 12.4804 13.6684 12.4749 13.644C12.4299 13.4523 12.3535 13.2738 12.2495 13.107C12.2393 13.0907 12.2396 13.0808 12.2513 13.0647C12.3475 12.9344 12.4428 12.8032 12.5383 12.6721C12.5711 12.6276 12.569 12.5989 12.5291 12.5604C12.4029 12.4361 12.2771 12.3128 12.1511 12.1895C12.131 12.17 12.113 12.1603 12.0946 12.1603C12.0779 12.1603 12.0607 12.168 12.0404 12.1835C11.9131 12.2803 11.7849 12.377 11.6582 12.4752C11.6477 12.4832 11.6147 12.4837 11.6049 12.4777C11.4502 12.3856 11.2847 12.3176 11.1096 12.276C11.0861 12.2702 11.0767 12.2601 11.0735 12.2367C11.0511 12.0759 11.0273 11.9158 11.0037 11.7555C10.9971 11.7085 10.9741 11.6875 10.9274 11.6875H10.3846C10.3391 11.6875 10.315 11.7085 10.3084 11.7526C10.285 11.9143 10.2613 12.0751 10.2387 12.2367C10.2355 12.2591 10.2275 12.2694 10.2048 12.2751C10.0145 12.3207 9.83618 12.3957 9.67058 12.4996C9.66214 12.5048 9.63467 12.5042 9.62608 12.4982C9.49579 12.4014 9.36504 12.3059 9.23368 12.2109C9.21465 12.197 9.197 12.1896 9.18043 12.1896C9.16201 12.1901 9.14421 12.1996 9.12549 12.2182C9.00088 12.3438 8.87735 12.4714 8.75304 12.5978C8.71437 12.6369 8.71314 12.6664 8.74629 12.7101C8.84466 12.8394 8.94241 12.9683 9.04185 13.097C9.05352 13.1124 9.05275 13.1228 9.04323 13.1386C8.94932 13.2965 8.87903 13.4646 8.83729 13.6438C8.83146 13.6685 8.8178 13.6729 8.79754 13.6757C8.63672 13.6989 8.47681 13.7224 8.31629 13.7458C8.27056 13.7527 8.25 13.7762 8.25 13.8239V14.3638C8.25 14.4112 8.2701 14.435 8.31645 14.4415C8.47697 14.4653 8.63718 14.4884 8.79754 14.5116C8.81857 14.5144 8.8313 14.5193 8.83729 14.5437C8.88255 14.7353 8.95883 14.9138 9.06303 15.0806C9.07315 15.0969 9.07269 15.1069 9.06103 15.123C8.96496 15.2528 8.86951 15.3845 8.77406 15.5155C8.74137 15.56 8.74368 15.5887 8.78357 15.6277C8.90956 15.7514 9.03556 15.8749 9.16155 15.9982C9.1818 16.0177 9.19991 16.0273 9.21848 16.0273C9.23521 16.0273 9.25224 16.0196 9.27234 16.0042C9.39972 15.9073 9.5277 15.8106 9.65461 15.7124C9.6649 15.7044 9.6982 15.704 9.70817 15.71C9.86255 15.802 10.0278 15.87 10.2034 15.9116C10.2268 15.9174 10.2361 15.9276 10.2394 15.9509C10.2618 16.1117 10.2855 16.2718 10.3086 16.4321C10.3152 16.4791 10.3384 16.5 10.3846 16.5H10.9275C10.9731 16.5 10.9969 16.479 11.0036 16.4349C11.0274 16.2735 11.0508 16.1123 11.0738 15.9508C11.0767 15.9311 11.0811 15.9188 11.1051 15.9132C11.2972 15.8677 11.4765 15.7915 11.6442 15.6868C11.6514 15.6822 11.6758 15.6827 11.6833 15.6882C11.8141 15.7846 11.945 15.8797 12.0762 15.9758C12.0975 15.9914 12.1149 15.9993 12.1311 15.9993C12.1506 15.9993 12.1687 15.9882 12.1904 15.966C12.3136 15.8407 12.4362 15.7155 12.5593 15.5898C12.598 15.5507 12.5992 15.5212 12.5659 15.4775C12.4677 15.3486 12.3698 15.2194 12.2706 15.0906C12.259 15.0753 12.2591 15.0648 12.2686 15.049C12.3621 14.8928 12.4316 14.7265 12.4738 14.5495C12.4799 14.5233 12.4922 14.5147 12.5172 14.511C12.6771 14.4886 12.8363 14.4653 12.9959 14.4418C13.0409 14.4352 13.062 14.4115 13.062 14.367C13.0622 14.1852 13.0622 14.003 13.062 13.8212C13.0623 13.7762 13.0409 13.7527 12.9957 13.7461L12.9957 13.7462ZM10.6562 15.2427C10.0218 15.2427 9.50727 14.7283 9.50727 14.0938C9.50727 13.4592 10.0217 12.9448 10.6562 12.9448C11.2906 12.9448 11.8052 13.4592 11.8052 14.0938C11.8052 14.7283 11.2906 15.2427 10.6562 15.2427Z" fill="black"/>
<path d="M4.125 2.0625H6.875C7.06468 2.0625 7.21875 1.90843 7.21875 1.71875C7.21875 1.52907 7.06468 1.375 6.875 1.375H4.125C3.93502 1.375 3.78125 1.52907 3.78125 1.71875C3.78125 1.90843 3.93502 2.0625 4.125 2.0625Z" fill="black"/>
<path d="M8.25 2.0625H8.9375C9.12718 2.0625 9.28125 1.90843 9.28125 1.71875C9.28125 1.52907 9.12718 1.375 8.9375 1.375H8.25C8.06002 1.375 7.90625 1.52907 7.90625 1.71875C7.90625 1.90843 8.06002 2.0625 8.25 2.0625Z" fill="black"/>
<path d="M4.8125 5.5C5.1917 5.5 5.5 5.8083 5.5 6.1875V8.25C5.5 8.6292 5.1917 8.9375 4.8125 8.9375H2.75C2.3708 8.9375 2.0625 8.6292 2.0625 8.25V6.1875C2.0625 5.8083 2.3708 5.5 2.75 5.5H4.8125ZM4.8125 4.8125H2.75C1.99069 4.8125 1.375 5.42803 1.375 6.1875V8.25C1.375 9.00931 1.99069 9.625 2.75 9.625H4.8125C5.57181 9.625 6.1875 9.00931 6.1875 8.25V6.1875C6.1875 5.42803 5.57181 4.8125 4.8125 4.8125Z" fill="black"/>
<path d="M4.8125 11C5.1917 11 5.5 11.3083 5.5 11.6875V13.75C5.5 14.1292 5.1917 14.4375 4.8125 14.4375H2.75C2.3708 14.4375 2.0625 14.1292 2.0625 13.75V11.6875C2.0625 11.3083 2.3708 11 2.75 11H4.8125ZM4.8125 10.3125H2.75C1.99069 10.3125 1.375 10.9282 1.375 11.6875V13.75C1.375 14.5093 1.99069 15.125 2.75 15.125H4.8125C5.57181 15.125 6.1875 14.5093 6.1875 13.75V11.6875C6.1875 10.9282 5.57181 10.3125 4.8125 10.3125Z" fill="black"/>
<path d="M13.0625 11C13.4417 11 13.75 11.3083 13.75 11.6875V16.5C13.75 16.8792 13.4417 17.1875 13.0625 17.1875H8.25C7.8708 17.1875 7.5625 16.8792 7.5625 16.5V11.6875C7.5625 11.3083 7.8708 11 8.25 11H13.0625ZM13.0625 10.3125H8.25C7.49069 10.3125 6.875 10.9282 6.875 11.6875V16.5C6.875 17.2593 7.49069 17.875 8.25 17.875H13.0625C13.8218 17.875 14.4375 17.2593 14.4375 16.5V11.6875C14.4375 10.9282 13.8218 10.3125 13.0625 10.3125Z" fill="black"/>
<path d="M4.8125 20.625H8.25C8.43968 20.625 8.59375 20.4709 8.59375 20.2812C8.59375 20.0916 8.43968 19.9375 8.25 19.9375H4.8125C4.62252 19.9375 4.46875 20.0916 4.46875 20.2812C4.46875 20.4709 4.62252 20.625 4.8125 20.625Z" fill="black"/>
<path d="M13.0625 9.625V1.375C13.0625 0.615686 12.4385 0 11.6692 0H1.39327C0.623975 0 0 0.615686 0 1.375V20.625C0 21.3843 0.623975 22 1.39327 22H11.6692C12.4385 22 13.0625 21.3843 13.0625 20.625V18.5625H0.6875V3.4375H12.375V9.625H13.0625ZM12.375 19.25V20.625C12.375 21.0042 12.0584 21.3125 11.6692 21.3125H1.39327C1.00394 21.3125 0.6875 21.0042 0.6875 20.625V19.25H12.375ZM0.6875 2.75V1.375C0.6875 0.995803 1.00409 0.6875 1.39327 0.6875H11.6692C12.0586 0.6875 12.3752 0.995803 12.3752 1.375V2.75H0.6875Z" fill="black"/>
</svg>
