<svg width="15" height="15" viewBox="0 0 15 15" fill="none" xmlns="http://www.w3.org/2000/svg">
<g clip-path="url(#clip0_329_80)">
<path d="M7.5 10C8.88071 10 10 8.88071 10 7.5C10 6.11929 8.88071 5 7.5 5C6.11929 5 5 6.11929 5 7.5C5 8.88071 6.11929 10 7.5 10Z" stroke="#858585" stroke-linecap="round" stroke-linejoin="round"/>
<path d="M10 5.0001V8.1251C10 8.62238 10.1976 9.09929 10.5492 9.45093C10.9008 9.80256 11.3777 10.0001 11.875 10.0001C12.3723 10.0001 12.8492 9.80256 13.2008 9.45093C13.5525 9.09929 13.75 8.62238 13.75 8.1251V7.5001C13.7499 6.08949 13.2726 4.7204 12.3958 3.61543C11.519 2.51047 10.2941 1.73462 8.92041 1.41404C7.54671 1.09346 6.10496 1.247 4.8296 1.8497C3.55423 2.45241 2.52025 3.46882 1.89579 4.73368C1.27133 5.99853 1.09311 7.43744 1.39011 8.81642C1.68711 10.1954 2.44187 11.4334 3.53165 12.329C4.62143 13.2247 5.98215 13.7253 7.39255 13.7496C8.80295 13.7738 10.1801 13.3202 11.3 12.4626" stroke="#858585" stroke-linecap="round" stroke-linejoin="round"/>
</g>
<defs>
<clipPath id="clip0_329_80">
<rect width="15" height="15" fill="white"/>
</clipPath>
</defs>
</svg>
