<svg width="15" height="15" viewBox="0 0 15 15" fill="none" xmlns="http://www.w3.org/2000/svg">
<path d="M5 1.25V3.125M10 1.25V3.125M2.1875 5.68125H12.8125M12.1812 11.9062H10.3188M11.25 10.9938V12.8625M11.25 14.375C11.913 14.375 12.5489 14.1116 13.0178 13.6428C13.4866 13.1739 13.75 12.538 13.75 11.875C13.75 11.212 13.4866 10.5761 13.0178 10.1072C12.5489 9.63839 11.913 9.375 11.25 9.375C10.587 9.375 9.95107 9.63839 9.48223 10.1072C9.01339 10.5761 8.75 11.212 8.75 11.875C8.75 12.538 9.01339 13.1739 9.48223 13.6428C9.95107 14.1116 10.587 14.375 11.25 14.375Z" stroke="white" stroke-miterlimit="10" stroke-linecap="round" stroke-linejoin="round"/>
<path d="M13.125 5.3125V10.225C12.6687 9.70625 12 9.375 11.25 9.375C9.86875 9.375 8.75 10.4937 8.75 11.875C8.75 12.3438 8.88125 12.7875 9.1125 13.1625C9.24375 13.3875 9.4125 13.5875 9.60625 13.75H5C2.8125 13.75 1.875 12.5 1.875 10.625V5.3125C1.875 3.4375 2.8125 2.1875 5 2.1875H10C12.1875 2.1875 13.125 3.4375 13.125 5.3125Z" stroke="white" stroke-miterlimit="10" stroke-linecap="round" stroke-linejoin="round"/>
<path d="M7.49687 8.5625H7.50312M5.18375 8.5625H5.19M5.18375 10.4375H5.19" stroke="white" stroke-linecap="round" stroke-linejoin="round"/>
</svg>
