<svg width="15" height="15" viewBox="0 0 15 15" fill="none" xmlns="http://www.w3.org/2000/svg">
<g clip-path="url(#clip0_457_724)">
<path d="M4.80075 1.20947V3.0118M9.60147 1.20947V3.0118M2.10034 5.46897H12.3019M11.6958 11.4527H9.90752M10.8017 10.5756V12.3719M10.8017 13.8258C11.4383 13.8258 12.0488 13.5726 12.499 13.1219C12.9491 12.6712 13.202 12.06 13.202 11.4227C13.202 10.7853 12.9491 10.1741 12.499 9.7234C12.0488 9.27273 11.4383 9.01955 10.8017 9.01955C10.165 9.01955 9.5545 9.27273 9.10434 9.7234C8.65419 10.1741 8.40129 10.7853 8.40129 11.4227C8.40129 12.06 8.65419 12.6712 9.10434 13.1219C9.5545 13.5726 10.165 13.8258 10.8017 13.8258Z" stroke="black" stroke-miterlimit="10" stroke-linecap="round" stroke-linejoin="round"/>
<path d="M12.6019 5.11447V9.83657C12.1639 9.33792 11.5218 9.01951 10.8017 9.01951C9.47545 9.01951 8.40129 10.0949 8.40129 11.4226C8.40129 11.8732 8.52731 12.2997 8.74934 12.6602C8.87536 12.8765 9.03738 13.0687 9.22341 13.2249H4.80075C2.70043 13.2249 1.80029 12.0234 1.80029 10.2211V5.11447C1.80029 3.31215 2.70043 2.1106 4.80075 2.1106H9.60147C11.7018 2.1106 12.6019 3.31215 12.6019 5.11447Z" stroke="black" stroke-miterlimit="10" stroke-linecap="round" stroke-linejoin="round"/>
<path d="M7.19811 8.23853H7.20411M4.97717 8.23853H4.98317M4.97717 10.0409H4.98317" stroke="black" stroke-linecap="round" stroke-linejoin="round"/>
</g>
<defs>
<clipPath id="clip0_457_724">
<rect width="14.4022" height="14.4186" fill="white" transform="translate(0 0.0078125)"/>
</clipPath>
</defs>
</svg>
