<svg width="21" height="13" viewBox="0 0 21 13" fill="none" xmlns="http://www.w3.org/2000/svg">
<path d="M21 3.97415C20.9922 3.76838 20.8584 3.58733 20.6608 3.51531L11.2174 0.124314C10.7541 -0.0414381 10.2459 -0.0414381 9.78262 0.124314L0.339229 3.51531C0.132879 3.59053 -0.00287005 3.78439 4.60739e-05 3.99978V10.6543C4.60739e-05 10.9358 0.23369 11.1642 0.521734 11.1642C0.809969 11.1642 1.04361 10.9358 1.04361 10.6543V4.71367L3.23484 5.55505V11.1132C3.2343 11.4346 3.33747 11.7479 3.52945 12.0087C3.72142 12.2696 3.99255 12.4649 4.30445 12.5666L5.7913 13H5.92177C6.08591 13 6.24058 12.9244 6.3392 12.796C7.17407 11.7252 8.76517 11.0624 10.4869 11.0624C12.2087 11.0624 13.826 11.7252 14.6347 12.796C14.7639 12.9578 14.9799 13.0281 15.1826 12.9744L16.6696 12.5664L16.6694 12.5666C16.9813 12.4649 17.2525 12.2696 17.4445 12.0087C17.6364 11.748 17.7396 11.4346 17.7391 11.1132V5.55505L20.6607 4.45862C20.8671 4.38339 21.0028 4.18954 20.9999 3.97415L21 3.97415ZM16.7218 11.1131C16.7209 11.335 16.5733 11.531 16.3566 11.5976L15.2609 11.9035C14.1913 10.7305 12.4175 10.0167 10.4871 10.0167C8.55661 10.0167 6.78276 10.7306 5.7132 11.9035L4.61756 11.5976C4.40084 11.531 4.25326 11.335 4.25236 11.1131V5.96285L9.73056 8.05363C10.2171 8.23859 10.7568 8.23859 11.2435 8.05363L16.7217 5.96285L16.7218 11.1131ZM10.8784 7.08468C10.6351 7.17716 10.3652 7.17716 10.1219 7.08468L1.98289 3.99973L10.1219 1.06758C10.3574 0.981683 10.6169 0.981683 10.8524 1.06758L18.9914 3.99973L10.8784 7.08468Z" fill="black"/>
</svg>
