<svg width="20" height="20" viewBox="0 0 20 20" fill="none" xmlns="http://www.w3.org/2000/svg">
<path d="M2.39523 4.76111H3.99205H16.7666" stroke="#888888" stroke-width="1.5" stroke-linecap="round" stroke-linejoin="round"/>
<path d="M15.1697 4.7611V15.8703C15.1697 16.2912 15.0015 16.6949 14.702 16.9925C14.4026 17.2901 13.9964 17.4573 13.5729 17.4573H5.58885C5.16535 17.4573 4.75919 17.2901 4.45973 16.9925C4.16027 16.6949 3.99203 16.2912 3.99203 15.8703V4.7611M6.38726 4.7611V3.17407C6.38726 2.75316 6.55549 2.34949 6.85495 2.05187C7.15441 1.75424 7.56057 1.58704 7.98407 1.58704H11.1777C11.6012 1.58704 12.0074 1.75424 12.3068 2.05187C12.6063 2.34949 12.7745 2.75316 12.7745 3.17407V4.7611" stroke="#888888" stroke-width="1.5" stroke-linecap="round" stroke-linejoin="round"/>
<path d="M7.98407 8.72864V13.4897" stroke="#888888" stroke-width="1.5" stroke-linecap="round" stroke-linejoin="round"/>
<path d="M11.1777 8.72864V13.4897" stroke="#888888" stroke-width="1.5" stroke-linecap="round" stroke-linejoin="round"/>
</svg>
