<svg width="20" height="20" viewBox="0 0 20 20" fill="none" xmlns="http://www.w3.org/2000/svg">
<mask id="path-1-inside-1_400_174" fill="white">
<path d="M6.3067 14.8241C6.53332 14.453 6.66663 14.0197 6.66663 13.5553C6.66663 12.2065 5.56886 11.1108 4.22213 11.1108C2.87325 11.1108 1.77762 12.2064 1.77762 13.5553C1.77762 14.0197 1.90876 14.4532 2.13538 14.8243C0.897771 15.2353 0 16.4019 0 17.7775V18.6663C0 19.4018 0.597694 19.9997 1.3334 19.9997H7.11113C7.84446 19.9997 8.44454 19.402 8.44454 18.6663V17.7775C8.44438 16.4019 7.54657 15.2354 6.30666 14.8241H6.3067ZM4.22215 11.9997C5.07996 11.9997 5.77766 12.6975 5.77766 13.5552C5.77766 14.413 5.07981 15.1107 4.22215 15.1107C3.36434 15.1107 2.66665 14.4128 2.66665 13.5552C2.66665 12.6975 3.3645 11.9997 4.22215 11.9997ZM7.55546 18.6663C7.55546 18.9107 7.3555 19.1107 7.11106 19.1107L1.33333 19.1109C1.08671 19.1109 0.888926 18.9109 0.888926 18.6665V17.7776C0.888926 16.6421 1.74443 15.7044 2.84451 15.5733C3.23544 15.8419 3.71101 15.9997 4.22207 15.9997C4.73096 15.9997 5.20655 15.8419 5.59762 15.5729C6.69773 15.7042 7.55538 16.6419 7.55538 17.7775L7.55546 18.6663Z"/>
</mask>
<path d="M6.3067 14.8241C6.53332 14.453 6.66663 14.0197 6.66663 13.5553C6.66663 12.2065 5.56886 11.1108 4.22213 11.1108C2.87325 11.1108 1.77762 12.2064 1.77762 13.5553C1.77762 14.0197 1.90876 14.4532 2.13538 14.8243C0.897771 15.2353 0 16.4019 0 17.7775V18.6663C0 19.4018 0.597694 19.9997 1.3334 19.9997H7.11113C7.84446 19.9997 8.44454 19.402 8.44454 18.6663V17.7775C8.44438 16.4019 7.54657 15.2354 6.30666 14.8241H6.3067ZM4.22215 11.9997C5.07996 11.9997 5.77766 12.6975 5.77766 13.5552C5.77766 14.413 5.07981 15.1107 4.22215 15.1107C3.36434 15.1107 2.66665 14.4128 2.66665 13.5552C2.66665 12.6975 3.3645 11.9997 4.22215 11.9997ZM7.55546 18.6663C7.55546 18.9107 7.3555 19.1107 7.11106 19.1107L1.33333 19.1109C1.08671 19.1109 0.888926 18.9109 0.888926 18.6665V17.7776C0.888926 16.6421 1.74443 15.7044 2.84451 15.5733C3.23544 15.8419 3.71101 15.9997 4.22207 15.9997C4.73096 15.9997 5.20655 15.8419 5.59762 15.5729C6.69773 15.7042 7.55538 16.6419 7.55538 17.7775L7.55546 18.6663Z" fill="black"/>
<path d="M6.3067 14.8241V16.8241H7.42878L8.01359 15.8665L6.3067 14.8241ZM2.13538 14.8243L2.76581 16.7223L5.15356 15.9292L3.84229 13.7819L2.13538 14.8243ZM8.44454 17.7775H10.4445V17.7773L8.44454 17.7775ZM6.30666 14.8241V12.8241L5.67701 16.7224L6.30666 14.8241ZM7.55546 18.6663H9.55546V18.6661L7.55546 18.6663ZM7.11106 19.1107V17.1107H7.11101L7.11106 19.1107ZM1.33333 19.1109V21.1109H1.33338L1.33333 19.1109ZM2.84451 15.5733L3.97717 13.9249L3.35606 13.4981L2.60774 13.5873L2.84451 15.5733ZM5.59762 15.5729L5.83463 13.587L5.08575 13.4977L4.46432 13.925L5.59762 15.5729ZM7.55538 17.7775H5.55538V17.7777L7.55538 17.7775ZM8.01359 15.8665C8.42026 15.2005 8.66663 14.4093 8.66663 13.5553H4.66663C4.66663 13.6302 4.64638 13.7055 4.59981 13.7817L8.01359 15.8665ZM8.66663 13.5553C8.66663 11.1008 6.67229 9.11084 4.22213 9.11084V13.1108C4.46543 13.1108 4.66663 13.3122 4.66663 13.5553H8.66663ZM4.22213 9.11084C1.7687 9.11084 -0.222379 11.1018 -0.222379 13.5553H3.77762C3.77762 13.311 3.97779 13.1108 4.22213 13.1108V9.11084ZM-0.222379 13.5553C-0.222379 14.4028 0.018274 15.1949 0.428475 15.8666L3.84229 13.7819C3.79924 13.7114 3.77762 13.6367 3.77762 13.5553H-0.222379ZM1.50495 12.9262C-0.520308 13.5989 -2 15.509 -2 17.7775H2C2 17.2949 2.31585 16.8718 2.76581 16.7223L1.50495 12.9262ZM-2 17.7775V18.6663H2V17.7775H-2ZM-2 18.6663C-2 20.5062 -0.507067 21.9997 1.3334 21.9997V17.9997C1.70245 17.9997 2 18.2974 2 18.6663H-2ZM1.3334 21.9997H7.11113V17.9997H1.3334V21.9997ZM7.11113 21.9997C8.9467 21.9997 10.4445 20.5089 10.4445 18.6663H6.44454C6.44454 18.2951 6.74222 17.9997 7.11113 17.9997V21.9997ZM10.4445 18.6663V17.7775H6.44454V18.6663H10.4445ZM10.4445 17.7773C10.4443 15.5082 8.96379 13.5983 6.9363 12.9258L5.67701 16.7224C6.12935 16.8724 6.44448 17.2957 6.44454 17.7777L10.4445 17.7773ZM6.30666 16.8241H6.3067V12.8241H6.30666V16.8241ZM4.22215 13.9997C3.97526 13.9997 3.77766 13.802 3.77766 13.5552H7.77766C7.77766 11.5931 6.18466 9.99968 4.22215 9.99968V13.9997ZM3.77766 13.5552C3.77766 13.3083 3.97537 13.1107 4.22215 13.1107V17.1107C6.18424 17.1107 7.77766 15.5177 7.77766 13.5552H3.77766ZM4.22215 13.1107C4.46905 13.1107 4.66665 13.3084 4.66665 13.5552H0.66665C0.66665 15.5173 2.25964 17.1107 4.22215 17.1107V13.1107ZM4.66665 13.5552C4.66665 13.8021 4.46907 13.9997 4.22215 13.9997V9.99968C2.25993 9.99968 0.66665 11.593 0.66665 13.5552H4.66665ZM5.55546 18.6663C5.55546 17.8061 6.25096 17.1107 7.11106 17.1107V21.1107C8.46003 21.1107 9.55546 20.0154 9.55546 18.6663H5.55546ZM7.11101 17.1107L1.33327 17.1109L1.33338 21.1109L7.11111 21.1107L7.11101 17.1107ZM1.33333 17.1109C2.19765 17.1109 2.88893 17.8127 2.88893 18.6665H-1.11107C-1.11107 20.0091 -0.024233 21.1109 1.33333 21.1109V17.1109ZM2.88893 18.6665V17.7776H-1.11107V18.6665H2.88893ZM2.88893 17.7776C2.88893 17.6686 2.9736 17.572 3.08127 17.5592L2.60774 13.5873C0.515271 13.8368 -1.11107 15.6156 -1.11107 17.7776H2.88893ZM1.71184 17.2216C2.42596 17.7123 3.29445 17.9997 4.22207 17.9997V13.9997C4.12756 13.9997 4.04492 13.9715 3.97717 13.9249L1.71184 17.2216ZM4.22207 17.9997C5.14853 17.9997 6.01718 17.7117 6.73091 17.2209L4.46432 13.925C4.39592 13.9721 4.31339 13.9997 4.22207 13.9997V17.9997ZM5.36061 17.5589C5.47127 17.5721 5.55538 17.6711 5.55538 17.7775H9.55538C9.55538 15.6127 7.92419 13.8364 5.83463 13.587L5.36061 17.5589ZM5.55538 17.7777L5.55546 18.6665L9.55546 18.6661L9.55538 17.7773L5.55538 17.7777Z" fill="black" mask="url(#path-1-inside-1_400_174)"/>
<mask id="path-3-inside-2_400_174" fill="white">
<path d="M17.8621 14.8241C18.0887 14.453 18.2221 14.0197 18.2221 13.5553C18.2221 12.2065 17.1243 11.1108 15.7775 11.1108C14.4287 11.1108 13.333 12.2064 13.333 13.5553C13.333 14.0197 13.4642 14.4532 13.6908 14.8243C12.4532 15.2353 11.5554 16.4019 11.5554 17.7775V18.6663C11.5554 19.4018 12.1531 19.9997 12.8888 19.9997H18.6666C19.3999 19.9997 20 19.402 20 18.6663V17.7775C19.9998 16.4019 19.102 15.2354 17.8621 14.8241H17.8621ZM15.7777 11.9997C16.6332 11.9997 17.3332 12.6975 17.3332 13.5552C17.3332 14.413 16.6332 15.1107 15.7777 15.1107C14.9199 15.1107 14.2222 14.4128 14.2222 13.5552C14.2221 12.6975 14.9199 11.9997 15.7777 11.9997ZM19.111 18.6663C19.111 18.9107 18.9111 19.1107 18.6666 19.1107L12.8889 19.1109C12.6423 19.1109 12.4445 18.9109 12.4445 18.6665V17.7776C12.4445 16.6421 13.3 15.7044 14.4001 15.5733C14.791 15.8419 15.2666 15.9997 15.7778 15.9997C16.2867 15.9997 16.7623 15.8419 17.1534 15.5729C18.2533 15.7042 19.1111 16.6419 19.1111 17.7775L19.111 18.6663Z"/>
</mask>
<path d="M17.8621 14.8241C18.0887 14.453 18.2221 14.0197 18.2221 13.5553C18.2221 12.2065 17.1243 11.1108 15.7775 11.1108C14.4287 11.1108 13.333 12.2064 13.333 13.5553C13.333 14.0197 13.4642 14.4532 13.6908 14.8243C12.4532 15.2353 11.5554 16.4019 11.5554 17.7775V18.6663C11.5554 19.4018 12.1531 19.9997 12.8888 19.9997H18.6666C19.3999 19.9997 20 19.402 20 18.6663V17.7775C19.9998 16.4019 19.102 15.2354 17.8621 14.8241H17.8621ZM15.7777 11.9997C16.6332 11.9997 17.3332 12.6975 17.3332 13.5552C17.3332 14.413 16.6332 15.1107 15.7777 15.1107C14.9199 15.1107 14.2222 14.4128 14.2222 13.5552C14.2221 12.6975 14.9199 11.9997 15.7777 11.9997ZM19.111 18.6663C19.111 18.9107 18.9111 19.1107 18.6666 19.1107L12.8889 19.1109C12.6423 19.1109 12.4445 18.9109 12.4445 18.6665V17.7776C12.4445 16.6421 13.3 15.7044 14.4001 15.5733C14.791 15.8419 15.2666 15.9997 15.7778 15.9997C16.2867 15.9997 16.7623 15.8419 17.1534 15.5729C18.2533 15.7042 19.1111 16.6419 19.1111 17.7775L19.111 18.6663Z" fill="black"/>
<path d="M17.8621 14.8241V16.8241H18.9842L19.569 15.8665L17.8621 14.8241ZM13.6908 14.8243L14.3212 16.7223L16.709 15.9292L15.3977 13.7819L13.6908 14.8243ZM20 17.7775H22V17.7773L20 17.7775ZM17.8621 14.8241V12.8241L17.2324 16.7224L17.8621 14.8241ZM14.2222 13.5552H16.2222V13.5548L14.2222 13.5552ZM19.111 18.6663L17.111 18.6661V18.6663H19.111ZM18.6666 19.1107V17.1107H18.6666L18.6666 19.1107ZM12.8889 19.1109V21.1109H12.889L12.8889 19.1109ZM14.4001 15.5733L15.5327 13.9249L14.9116 13.4981L14.1633 13.5873L14.4001 15.5733ZM17.1534 15.5729L17.3904 13.587L16.6415 13.4977L16.0201 13.925L17.1534 15.5729ZM19.1111 17.7775L21.1111 17.7777V17.7775H19.1111ZM19.569 15.8665C19.9757 15.2005 20.2221 14.4093 20.2221 13.5553H16.2221C16.2221 13.6302 16.2018 13.7055 16.1552 13.7817L19.569 15.8665ZM20.2221 13.5553C20.2221 11.1008 18.2277 9.11084 15.7775 9.11084V13.1108C16.0209 13.1108 16.2221 13.3122 16.2221 13.5553H20.2221ZM15.7775 9.11084C13.3241 9.11084 11.333 11.1018 11.333 13.5553H15.333C15.333 13.311 15.5332 13.1108 15.7775 13.1108V9.11084ZM11.333 13.5553C11.333 14.4028 11.5737 15.1949 11.9839 15.8666L15.3977 13.7819C15.3547 13.7114 15.333 13.6367 15.333 13.5553H11.333ZM13.0604 12.9262C11.0351 13.5989 9.55542 15.509 9.55542 17.7775H13.5554C13.5554 17.2949 13.8713 16.8718 14.3212 16.7223L13.0604 12.9262ZM9.55542 17.7775V18.6663H13.5554V17.7775H9.55542ZM9.55542 18.6663C9.55542 20.5062 11.0484 21.9997 12.8888 21.9997V17.9997C13.2579 17.9997 13.5554 18.2974 13.5554 18.6663H9.55542ZM12.8888 21.9997H18.6666V17.9997H12.8888V21.9997ZM18.6666 21.9997C20.5021 21.9997 22 20.5089 22 18.6663H18C18 18.2951 18.2976 17.9997 18.6666 17.9997V21.9997ZM22 18.6663V17.7775H18V18.6663H22ZM22 17.7773C21.9997 15.5082 20.5192 13.5983 18.4917 12.9258L17.2324 16.7224C17.6848 16.8724 17.9999 17.2957 18 17.7777L22 17.7773ZM17.8621 16.8241H17.8621V12.8241H17.8621V16.8241ZM15.7777 13.9997C15.5305 13.9997 15.3332 13.8039 15.3332 13.5552H19.3332C19.3332 11.5912 17.736 9.99968 15.7777 9.99968V13.9997ZM15.3332 13.5552C15.3332 13.3065 15.5306 13.1107 15.7777 13.1107V17.1107C17.7358 17.1107 19.3332 15.5195 19.3332 13.5552H15.3332ZM15.7777 13.1107C16.0246 13.1107 16.2222 13.3084 16.2222 13.5552H12.2222C12.2222 15.5173 13.8152 17.1107 15.7777 17.1107V13.1107ZM16.2222 13.5548C16.2223 13.8022 16.0243 13.9997 15.7777 13.9997V9.99968C13.8156 9.99968 12.2219 11.5928 12.2222 13.5555L16.2222 13.5548ZM17.111 18.6663C17.111 17.8061 17.8066 17.1107 18.6666 17.1107V21.1107C20.0156 21.1107 21.111 20.0154 21.111 18.6663H17.111ZM18.6666 17.1107L12.8889 17.1109L12.889 21.1109L18.6667 21.1107L18.6666 17.1107ZM12.8889 17.1109C13.7532 17.1109 14.4445 17.8127 14.4445 18.6665H10.4445C10.4445 20.0091 11.5313 21.1109 12.8889 21.1109V17.1109ZM14.4445 18.6665V17.7776H10.4445V18.6665H14.4445ZM14.4445 17.7776C14.4445 17.6686 14.5292 17.572 14.6368 17.5592L14.1633 13.5873C12.0708 13.8368 10.4445 15.6156 10.4445 17.7776H14.4445ZM13.2674 17.2216C13.9816 17.7124 14.8501 17.9997 15.7778 17.9997V13.9997C15.6831 13.9997 15.6004 13.9714 15.5327 13.9249L13.2674 17.2216ZM15.7778 17.9997C16.7043 17.9997 17.5729 17.7117 18.2867 17.2209L16.0201 13.925C15.9517 13.9721 15.8691 13.9997 15.7778 13.9997V17.9997ZM16.9163 17.5588C17.027 17.5721 17.1111 17.6712 17.1111 17.7775H21.1111C21.1111 15.6126 19.4797 13.8364 17.3904 13.587L16.9163 17.5588ZM17.1111 17.7773L17.111 18.6661L21.111 18.6665L21.1111 17.7777L17.1111 17.7773Z" fill="black" mask="url(#path-3-inside-2_400_174)"/>
<mask id="path-5-inside-3_400_174" fill="white">
<path d="M7.11112 8.88886H12.8889C13.6222 8.88886 14.2223 8.29116 14.2223 7.55546V6.66665C14.2223 5.29111 13.3244 4.12453 12.0845 3.71326C12.311 3.34217 12.4445 2.90891 12.4445 2.4445C12.4445 1.09563 11.3467 0 9.99996 0C8.65108 0 7.55545 1.09559 7.55545 2.4445C7.55545 2.90891 7.68659 3.34232 7.91321 3.71342C6.67548 4.12449 5.77783 5.29111 5.77783 6.66665V7.55546C5.77783 8.29113 6.37553 8.88886 7.11108 8.88886H7.11112ZM10 0.888922C10.8555 0.888922 11.5555 1.58677 11.5555 2.44443C11.5555 3.30224 10.8555 3.99993 10 3.99993C9.14221 3.99993 8.44452 3.30208 8.44452 2.44443C8.44452 1.58677 9.14221 0.888922 10 0.888922ZM6.66672 6.66665C6.66672 5.53107 7.52223 4.59342 8.6223 4.46227C9.01339 4.73105 9.48896 4.88885 10 4.88885C10.5089 4.88885 10.9845 4.73105 11.3756 4.46211C12.4755 4.5934 13.3333 5.53107 13.3333 6.66665V7.55546C13.3333 7.79991 13.1334 7.99986 12.8889 7.99986L7.1112 8.00001C6.86458 8.00001 6.6668 7.80005 6.6668 7.55561L6.66672 6.66665Z"/>
</mask>
<path d="M7.11112 8.88886H12.8889C13.6222 8.88886 14.2223 8.29116 14.2223 7.55546V6.66665C14.2223 5.29111 13.3244 4.12453 12.0845 3.71326C12.311 3.34217 12.4445 2.90891 12.4445 2.4445C12.4445 1.09563 11.3467 0 9.99996 0C8.65108 0 7.55545 1.09559 7.55545 2.4445C7.55545 2.90891 7.68659 3.34232 7.91321 3.71342C6.67548 4.12449 5.77783 5.29111 5.77783 6.66665V7.55546C5.77783 8.29113 6.37553 8.88886 7.11108 8.88886H7.11112ZM10 0.888922C10.8555 0.888922 11.5555 1.58677 11.5555 2.44443C11.5555 3.30224 10.8555 3.99993 10 3.99993C9.14221 3.99993 8.44452 3.30208 8.44452 2.44443C8.44452 1.58677 9.14221 0.888922 10 0.888922ZM6.66672 6.66665C6.66672 5.53107 7.52223 4.59342 8.6223 4.46227C9.01339 4.73105 9.48896 4.88885 10 4.88885C10.5089 4.88885 10.9845 4.73105 11.3756 4.46211C12.4755 4.5934 13.3333 5.53107 13.3333 6.66665V7.55546C13.3333 7.79991 13.1334 7.99986 12.8889 7.99986L7.1112 8.00001C6.86458 8.00001 6.6668 7.80005 6.6668 7.55561L6.66672 6.66665Z" fill="black"/>
<path d="M12.0845 3.71326L10.3773 2.67141L9.0665 4.81936L11.4549 5.61156L12.0845 3.71326ZM7.91321 3.71342L8.54359 5.61148L10.9314 4.81844L9.62012 2.67108L7.91321 3.71342ZM6.66672 6.66665H4.66672V6.66683L6.66672 6.66665ZM8.6223 4.46227L9.7551 2.81401L9.13394 2.38711L8.38554 2.47633L8.6223 4.46227ZM11.3756 4.46211L11.6126 2.4762L10.8637 2.38682L10.2423 2.81419L11.3756 4.46211ZM12.8889 7.99986V5.99986H12.8889L12.8889 7.99986ZM7.1112 8.00001V10H7.11125L7.1112 8.00001ZM6.6668 7.55561H8.6668L8.6668 7.55543L6.6668 7.55561ZM7.11112 10.8889H12.8889V6.88886H7.11112V10.8889ZM12.8889 10.8889C14.7244 10.8889 16.2223 9.39806 16.2223 7.55546H12.2223C12.2223 7.18427 12.5199 6.88886 12.8889 6.88886V10.8889ZM16.2223 7.55546V6.66665H12.2223V7.55546H16.2223ZM16.2223 6.66665C16.2223 4.39738 14.7416 2.48745 12.7142 1.81496L11.4549 5.61156C11.9072 5.76161 12.2223 6.18484 12.2223 6.66665H16.2223ZM13.7917 4.75512C14.1977 4.08988 14.4445 3.29883 14.4445 2.4445H10.4445C10.4445 2.51898 10.4243 2.59447 10.3773 2.67141L13.7917 4.75512ZM14.4445 2.4445C14.4445 -0.0100837 12.4501 -2 9.99996 -2V2C10.2433 2 10.4445 2.20134 10.4445 2.4445H14.4445ZM9.99996 -2C7.54653 -2 5.55545 -0.00900359 5.55545 2.4445H9.55545C9.55545 2.20018 9.75563 2 9.99996 2V-2ZM5.55545 2.4445C5.55545 3.29193 5.7961 4.08403 6.20631 4.75576L9.62012 2.67108C9.57708 2.6006 9.55545 2.52588 9.55545 2.4445H5.55545ZM7.28284 1.81536C5.25733 2.48807 3.77783 4.39828 3.77783 6.66665H7.77783C7.77783 6.18394 8.09364 5.76092 8.54359 5.61148L7.28284 1.81536ZM3.77783 6.66665V7.55546H7.77783V6.66665H3.77783ZM3.77783 7.55546C3.77783 9.3955 5.27076 10.8889 7.11108 10.8889V6.88886C7.48029 6.88886 7.77783 7.18675 7.77783 7.55546H3.77783ZM7.11108 10.8889H7.11112V6.88886H7.11108V10.8889ZM10 2.88892C9.75276 2.88892 9.55553 2.69313 9.55553 2.44443H13.5555C13.5555 0.480411 11.9583 -1.11108 10 -1.11108V2.88892ZM9.55553 2.44443C9.55553 2.19571 9.75288 1.99993 10 1.99993V5.99993C11.9581 5.99993 13.5555 4.40876 13.5555 2.44443H9.55553ZM10 1.99993C10.2469 1.99993 10.4445 2.19764 10.4445 2.44443H6.44452C6.44452 4.40651 8.03751 5.99993 10 5.99993V1.99993ZM10.4445 2.44443C10.4445 2.69121 10.2469 2.88892 10 2.88892V-1.11108C8.03751 -1.11108 6.44452 0.482336 6.44452 2.44443H10.4445ZM8.66672 6.66665C8.66672 6.55756 8.75139 6.46104 8.85906 6.4482L8.38554 2.47633C6.29306 2.72579 4.66672 4.50458 4.66672 6.66665H8.66672ZM7.4895 6.11053C8.20376 6.60142 9.07231 6.88885 10 6.88885V2.88885C9.9056 2.88885 9.82301 2.86068 9.7551 2.81401L7.4895 6.11053ZM10 6.88885C10.9265 6.88885 11.7951 6.60087 12.5089 6.11003L10.2423 2.81419C10.1739 2.86123 10.0913 2.88885 10 2.88885V6.88885ZM11.1385 6.44801C11.2492 6.46122 11.3333 6.56041 11.3333 6.66665H15.3333C15.3333 4.50172 13.7019 2.72558 11.6126 2.4762L11.1385 6.44801ZM11.3333 6.66665V7.55546H15.3333V6.66665H11.3333ZM11.3333 7.55546C11.3333 6.6953 12.0288 5.99986 12.8889 5.99986V9.99986C14.2379 9.99986 15.3333 8.90451 15.3333 7.55546H11.3333ZM12.8889 5.99986L7.11114 6.00001L7.11125 10L12.889 9.99986L12.8889 5.99986ZM7.1112 6.00001C7.97553 6.00001 8.6668 6.70187 8.6668 7.55561H4.6668C4.6668 8.89823 5.75363 10 7.1112 10V6.00001ZM8.6668 7.55543L8.66672 6.66648L4.66672 6.66683L4.6668 7.55579L8.6668 7.55543Z" fill="black" mask="url(#path-5-inside-3_400_174)"/>
<mask id="path-7-inside-4_400_174" fill="white">
<path d="M12.0911 14.5355C12.2644 14.3622 12.2644 14.08 12.0911 13.9066L10.4445 12.26V10.2222C10.4445 9.97778 10.2445 9.77783 10.0001 9.77783C9.75564 9.77783 9.55568 9.97779 9.55568 10.2222V12.26L7.90903 13.9066C7.73573 14.0799 7.73573 14.3622 7.90903 14.5355C7.99351 14.6222 8.10682 14.6667 8.2223 14.6667C8.33778 14.6667 8.44892 14.6222 8.53557 14.5355L10.0001 13.0733L11.4644 14.5377C11.5489 14.6222 11.6622 14.6666 11.7779 14.6666C11.8933 14.6666 12.0045 14.6222 12.0911 14.5355Z"/>
</mask>
<path d="M12.0911 14.5355C12.2644 14.3622 12.2644 14.08 12.0911 13.9066L10.4445 12.26V10.2222C10.4445 9.97778 10.2445 9.77783 10.0001 9.77783C9.75564 9.77783 9.55568 9.97779 9.55568 10.2222V12.26L7.90903 13.9066C7.73573 14.0799 7.73573 14.3622 7.90903 14.5355C7.99351 14.6222 8.10682 14.6667 8.2223 14.6667C8.33778 14.6667 8.44892 14.6222 8.53557 14.5355L10.0001 13.0733L11.4644 14.5377C11.5489 14.6222 11.6622 14.6666 11.7779 14.6666C11.8933 14.6666 12.0045 14.6222 12.0911 14.5355Z" fill="black"/>
<path d="M12.0911 13.9066L13.5055 12.4926L13.5054 12.4924L12.0911 13.9066ZM10.4445 12.26H8.44448V13.0884L9.03027 13.6742L10.4445 12.26ZM9.55568 12.26L10.9699 13.6742L11.5557 13.0884V12.26H9.55568ZM7.90903 13.9066L9.32324 15.3209H9.32324L7.90903 13.9066ZM7.90903 14.5355L9.34106 13.1394L9.33227 13.1304L9.32337 13.1214L7.90903 14.5355ZM8.53557 14.5355L7.12247 13.1202L7.12136 13.1213L8.53557 14.5355ZM10.0001 13.0733L11.4143 11.6591L10.0012 10.246L8.58698 11.658L10.0001 13.0733ZM13.5054 15.9497C14.4598 14.9953 14.4596 13.4468 13.5055 12.4926L10.6768 15.3207C10.0693 14.7131 10.0691 13.7291 10.6769 13.1213L13.5054 15.9497ZM13.5054 12.4924L11.8587 10.8458L9.03027 13.6742L10.6769 15.3209L13.5054 12.4924ZM12.4445 12.26V10.2222H8.44448V12.26H12.4445ZM12.4445 10.2222C12.4445 8.87318 11.3491 7.77783 10.0001 7.77783V11.7778C9.13999 11.7778 8.44448 11.0824 8.44448 10.2222H12.4445ZM10.0001 7.77783C8.65108 7.77783 7.55568 8.87323 7.55568 10.2222H11.5557C11.5557 11.0824 10.8602 11.7778 10.0001 11.7778V7.77783ZM7.55568 10.2222V12.26H11.5557V10.2222H7.55568ZM8.14147 10.8458L6.49481 12.4924L9.32324 15.3209L10.9699 13.6742L8.14147 10.8458ZM6.49481 12.4924C5.54039 13.4469 5.54058 14.9953 6.49468 15.9496L9.32337 13.1214C9.93088 13.7291 9.93106 14.713 9.32324 15.3209L6.49481 12.4924ZM6.47699 15.9317C6.95486 16.4218 7.59239 16.6667 8.2223 16.6667V12.6667C8.62125 12.6667 9.03215 12.8225 9.34106 13.1394L6.47699 15.9317ZM8.2223 16.6667C8.86723 16.6667 9.48737 16.4122 9.94978 15.9497L7.12136 13.1213C7.41047 12.8322 7.80833 12.6667 8.2223 12.6667V16.6667ZM9.94867 15.9509L11.4132 14.4886L8.58698 11.658L7.12247 13.1202L9.94867 15.9509ZM8.58587 14.4875L10.0502 15.9519L12.8787 13.1235L11.4143 11.6591L8.58587 14.4875ZM10.0502 15.9519C10.5232 16.4249 11.1511 16.6666 11.7779 16.6666V12.6666C12.1734 12.6666 12.5746 12.8194 12.8787 13.1235L10.0502 15.9519ZM11.7779 16.6666C12.4224 16.6666 13.0427 16.4124 13.5054 15.9497L10.6769 13.1213C10.9663 12.832 11.3642 12.6666 11.7779 12.6666V16.6666Z" fill="black" mask="url(#path-7-inside-4_400_174)"/>
</svg>
