<svg width="18" height="18" viewBox="0 0 18 18" fill="none" xmlns="http://www.w3.org/2000/svg">
<g clip-path="url(#clip0_333_649)">
<path d="M8.25 1.5H6.75C3 1.5 1.5 3 1.5 6.75V11.25C1.5 15 3 16.5 6.75 16.5H11.25C15 16.5 16.5 15 16.5 11.25V9.75" stroke="#161616" stroke-width="1.5" stroke-linecap="round" stroke-linejoin="round"/>
<path d="M12.03 2.26495L6.12003 8.17495C5.89503 8.39995 5.67003 8.84245 5.62503 9.16495L5.30253 11.4224C5.18253 12.2399 5.76003 12.8099 6.57753 12.6974L8.83503 12.3749C9.15003 12.3299 9.59253 12.1049 9.82503 11.8799L15.735 5.96995C16.755 4.94995 17.235 3.76495 15.735 2.26495C14.235 0.764945 13.05 1.24495 12.03 2.26495Z" stroke="#161616" stroke-width="1.5" stroke-miterlimit="10" stroke-linecap="round" stroke-linejoin="round"/>
<path d="M11.1825 3.1123C11.4312 3.99541 11.9025 4.79985 12.5512 5.44859C13.1999 6.09732 14.0044 6.56861 14.8875 6.8173" stroke="#161616" stroke-width="1.5" stroke-miterlimit="10" stroke-linecap="round" stroke-linejoin="round"/>
</g>
<defs>
<clipPath id="clip0_333_649">
<rect width="18" height="18" fill="white"/>
</clipPath>
</defs>
</svg>
