<svg width="30" height="21" viewBox="0 0 30 21" fill="none" xmlns="http://www.w3.org/2000/svg">
<path d="M6.11333 3C4.68603 3 3.51492 4.12126 3.51492 5.49869C3.51492 6.39521 4.01166 7.19278 4.75172 7.63651C3.15748 8.17174 2.00006 9.60533 2.00006 11.3011C1.99771 11.4598 2.06127 11.6126 2.17663 11.7254C2.29199 11.8384 2.44929 11.9018 2.61366 11.9018C2.77781 11.9018 2.93533 11.8384 3.05069 11.7254C3.16605 11.6126 3.22961 11.4598 3.22726 11.3011C3.22726 9.80078 4.49638 8.58967 6.11331 8.58967C7.73024 8.58967 8.99936 9.80078 8.99936 11.3011C8.99701 11.4598 9.06057 11.6126 9.17593 11.7254C9.29129 11.8384 9.44859 11.9018 9.61296 11.9018C9.77711 11.9018 9.93463 11.8384 10.05 11.7254C10.1653 11.6126 10.2289 11.4598 10.2266 11.3011C10.2266 9.60538 9.06892 8.17174 7.47468 7.63651C8.21477 7.1928 8.7117 6.39521 8.7117 5.49869C8.7117 4.12126 7.54063 3 6.11333 3ZM24.8867 3C23.4594 3 22.2883 4.12126 22.2883 5.49869C22.2883 6.39521 22.7852 7.19278 23.5253 7.63651C21.9311 8.17174 20.7734 9.60533 20.7734 11.3011C20.7711 11.4598 20.8347 11.6126 20.95 11.7254C21.0654 11.8384 21.2229 11.9018 21.387 11.9018C21.5514 11.9018 21.7087 11.8384 21.8241 11.7254C21.9394 11.6126 22.003 11.4598 22.0006 11.3011C22.0006 9.80078 23.2698 8.58967 24.8867 8.58967C26.5036 8.58967 27.7727 9.80078 27.7727 11.3011C27.7704 11.4598 27.834 11.6126 27.9493 11.7254C28.0647 11.8384 28.2222 11.9018 28.3863 11.9018C28.5507 11.9018 28.708 11.8384 28.8234 11.7254C28.9387 11.6126 29.0023 11.4598 28.9999 11.3011C28.9999 9.60538 27.8425 8.17174 26.2483 7.63651C26.9884 7.1928 27.4851 6.39521 27.4851 5.49869C27.4851 4.12126 26.314 3 24.8867 3ZM6.11333 4.18446C6.87758 4.18446 7.48431 4.76183 7.48431 5.49869C7.48431 6.23534 6.87758 6.82197 6.11333 6.82197C5.34886 6.82197 4.74213 6.23529 4.74213 5.49869C4.74213 4.76183 5.34886 4.18446 6.11333 4.18446ZM24.8867 4.18446C25.6512 4.18446 26.2579 4.76183 26.2579 5.49869C26.2579 6.23534 25.6512 6.82197 24.8867 6.82197C24.1225 6.82197 23.5157 6.23529 23.5157 5.49869C23.5157 4.76183 24.1225 4.18446 24.8867 4.18446ZM15.5003 4.86014C13.2347 4.86014 11.3774 6.628 11.3774 8.80236C11.3774 10.3122 12.277 11.6293 13.5827 12.2914C10.7681 13.0664 8.70243 15.5003 8.70243 18.3993C8.70008 18.5577 8.76364 18.7106 8.879 18.8236C8.99436 18.9364 9.15166 19 9.31603 19C9.48039 19 9.6377 18.9364 9.75306 18.8236C9.86841 18.7106 9.93197 18.5577 9.92962 18.3993C9.92962 15.53 12.3921 13.2168 15.5005 13.2168C18.609 13.2168 21.0715 15.53 21.0715 18.3993C21.0691 18.5577 21.1327 18.7106 21.248 18.8236C21.3634 18.9364 21.5207 19 21.6851 19C21.8494 19 22.0067 18.9364 22.1221 18.8236C22.2375 18.7106 22.301 18.5577 22.2987 18.3993C22.2987 15.5003 20.233 13.0666 17.4184 12.2914C18.7241 11.6293 19.6237 10.3122 19.6237 8.80236C19.6237 6.628 17.7664 4.86014 15.5008 4.86014H15.5003ZM15.5003 6.0446C17.1093 6.0446 18.396 7.27475 18.396 8.80231C18.396 10.3303 17.1093 11.5602 15.5003 11.5602C13.8913 11.5602 12.6046 10.3303 12.6046 8.80231C12.6046 7.27469 13.8913 6.0446 15.5003 6.0446Z" fill="black" fill-opacity="0.8"/>
</svg>
