<svg width="20" height="20" viewBox="0 0 20 20" fill="none" xmlns="http://www.w3.org/2000/svg">
<g clip-path="url(#clip0_275_537)">
<path d="M0.673297 19.9779L0.938063 19.9337L11.6851 15.4303C11.8909 15.3471 12.0413 15.1662 12.0858 14.9486C12.1301 14.7312 12.0625 14.5058 11.9058 14.3485L5.63856 8.07911C5.4814 7.92235 5.25604 7.85475 5.03867 7.8991C4.82117 7.9436 4.64031 8.09405 4.55716 8.29993L0.0553363 19.0727C-0.0348697 19.2794 -0.0137792 19.5176 0.111215 19.7051C0.236209 19.8927 0.447867 20.0037 0.673234 19.9999L0.673297 19.9779ZM2.19601 17.373L2.61534 17.7925L1.90909 18.0795L2.19601 17.373ZM5.21926 16.6887L3.9173 17.2406L2.72572 16.0486L3.27741 14.7462L5.21926 16.6887ZM3.82895 13.4437L4.38064 12.1413L7.84536 15.607L6.54325 16.1589L3.82895 13.4437ZM5.37365 9.71289L10.2727 14.5915L9.16931 15.0552L4.9323 10.8167L5.37365 9.71289Z" fill="black" fill-opacity="0.8"/>
<path d="M8.92673 6.95333C9.10437 6.18787 9.08159 5.38945 8.86054 4.63538L7.6026 5.03265H7.60275C7.75653 5.56451 7.77162 6.12688 7.64678 6.66627C7.5107 7.25202 7.21251 7.78758 6.78613 8.21151L7.71298 9.13867H7.71313C8.31472 8.53874 8.73538 7.78127 8.92674 6.95329L8.92673 6.95333Z" fill="black" fill-opacity="0.8"/>
<path d="M5.61654 2.93571C5.67427 3.15591 5.84098 3.33082 6.05802 3.39937L6.65389 3.57599L6.83045 4.17207L6.83029 4.17191C6.89864 4.38903 7.07366 4.5558 7.2938 4.61354H7.47036C7.64184 4.61693 7.80793 4.55364 7.9337 4.43692L8.39721 3.99545L9.0151 4.15005V4.1499C9.23769 4.20148 9.4712 4.13465 9.63269 3.97297C9.79432 3.81143 9.86112 3.57786 9.80955 3.35517L9.65501 2.73706L10.0963 2.2734C10.2296 2.10432 10.2723 1.88089 10.2108 1.67456C10.1494 1.46822 9.99149 1.30454 9.78738 1.23586L9.19151 1.05923L9.01495 0.463158L9.0151 0.463312C8.94691 0.246808 8.77266 0.0803514 8.5533 0.0221591C8.3341 -0.0360489 8.10028 0.0221591 7.9337 0.1763L7.4702 0.617769L6.8523 0.463166L6.85246 0.46332C6.62972 0.411735 6.39636 0.478565 6.23472 0.640097C6.07309 0.801783 6.00628 1.03536 6.058 1.25805L6.21255 1.87616L5.77123 2.33982L5.77108 2.33967C5.62469 2.50089 5.56698 2.72367 5.61654 2.93571ZM7.60256 1.98654H7.60272C7.76835 2.0021 7.93383 1.95482 8.06606 1.85412C8.13241 2.00102 8.25017 2.11882 8.39717 2.18518C8.29634 2.31761 8.24909 2.48315 8.26479 2.64869C8.09916 2.63314 7.93368 2.68041 7.80128 2.78127C7.73494 2.63421 7.61718 2.51641 7.47033 2.45005C7.57654 2.31192 7.62411 2.13746 7.60271 1.96439L7.60256 1.98654Z" fill="black" fill-opacity="0.8"/>
<path d="M13.3401 12.3398C13.8794 12.2149 14.4415 12.23 14.9732 12.3838L15.3703 11.1255V11.1256C14.6164 10.9056 13.8185 10.8828 13.0533 11.0594C12.2176 11.247 11.4524 11.668 10.8466 12.2734L11.7734 13.2007C12.2033 12.7706 12.7467 12.4719 13.3401 12.3398Z" fill="black" fill-opacity="0.8"/>
<path d="M19.9826 11.4348C19.9249 11.2146 19.7582 11.0395 19.5413 10.9711L18.9454 10.7945L18.7468 10.1986C18.6786 9.98207 18.5044 9.81546 18.285 9.75726C18.0657 9.69906 17.8318 9.75726 17.6654 9.91156L17.2019 10.353L16.584 10.1984V10.1986C16.3614 10.1468 16.1281 10.2138 15.9664 10.3754C15.8048 10.537 15.738 10.7706 15.7896 10.9933L15.9441 11.6114L15.5028 12.0751V12.0749C15.3486 12.2415 15.2904 12.4754 15.3486 12.6947C15.4068 12.9142 15.5732 13.0885 15.7896 13.1567L16.3854 13.3333L16.562 13.9294V13.9292C16.6303 14.1464 16.8054 14.3131 17.0253 14.3709H17.2019C17.3735 14.3743 17.5396 14.311 17.6654 14.1942L18.1289 13.7528L18.7468 13.9074V13.9072C18.9694 13.9588 19.2027 13.892 19.3644 13.7304C19.526 13.5688 19.5928 13.3352 19.5413 13.1125L19.3867 12.4944L19.828 12.0307C19.9744 11.8697 20.0321 11.6468 19.9826 11.4348ZM17.9966 12.3839H17.9964C17.8308 12.3684 17.6655 12.4157 17.5331 12.5164C17.4667 12.3695 17.349 12.2517 17.202 12.1853C17.3028 12.0529 17.35 11.8873 17.3345 11.7216C17.5 11.7373 17.6654 11.6901 17.7978 11.5892C17.8642 11.7363 17.9819 11.8541 18.1288 11.9204C18.0358 12.0558 17.9966 12.2212 18.0186 12.3839L17.9966 12.3839Z" fill="black" fill-opacity="0.8"/>
<path d="M15.7456 5.01079L15.1497 4.83416L14.9731 4.23809C14.9049 4.02159 14.7307 3.85513 14.5115 3.79694C14.2921 3.73873 14.0583 3.79694 13.8917 3.95123L13.4282 4.3927L12.8105 4.2381C12.5879 4.18651 12.3544 4.25334 12.1928 4.41503C12.0313 4.57671 11.9645 4.81014 12.016 5.03282L12.1706 5.65093L11.7293 6.1146H11.7291C11.5749 6.28106 11.5167 6.51511 11.5749 6.7344C11.6331 6.95383 11.7996 7.12814 12.016 7.19637L12.6119 7.37299L12.7885 7.96906L12.7883 7.96891C12.8568 8.18603 13.0317 8.35264 13.2518 8.41038H13.4284C13.5999 8.41392 13.766 8.35048 13.8917 8.23391L14.3552 7.79244L14.9731 7.94704V7.94689C15.1879 7.98693 15.4085 7.91871 15.5628 7.76411C15.7172 7.60966 15.7856 7.389 15.7456 7.17419L15.591 6.55607L16.0323 6.09241V6.09257C16.1866 5.92595 16.2448 5.69206 16.1866 5.4726C16.1284 5.25333 15.962 5.07901 15.7456 5.01079ZM14.2229 6.42361C14.0572 6.4079 13.8917 6.45518 13.7594 6.55604C13.693 6.40898 13.5754 6.29134 13.4284 6.22497C13.5292 6.09254 13.5765 5.92701 13.5608 5.76131C13.7264 5.77702 13.8919 5.72974 14.0243 5.62888C14.0906 5.77594 14.2082 5.89358 14.3552 5.95995C14.2544 6.09238 14.2072 6.25791 14.2229 6.42361Z" fill="black" fill-opacity="0.8"/>
<path d="M8.92749 10.1335L11.393 7.66711L12.3292 8.60366L9.86372 11.07L8.92749 10.1335Z" fill="black" fill-opacity="0.8"/>
</g>
<defs>
<clipPath id="clip0_275_537">
<rect width="20" height="20" fill="white"/>
</clipPath>
</defs>
</svg>
