<svg width="21" height="20" viewBox="0 0 21 20" fill="none" xmlns="http://www.w3.org/2000/svg">
<g clip-path="url(#clip0_255_195)">
<path d="M15.08 14.95C13.6555 16.0358 11.9209 16.6374 10.13 16.6667C4.29668 16.6667 0.963348 10 0.963348 10C1.99992 8.06825 3.43763 6.38051 5.18002 5.05M8.38002 3.53333C8.95363 3.39907 9.5409 3.33195 10.13 3.33333C15.9633 3.33333 19.2967 10 19.2967 10C18.7908 10.9463 18.1876 11.8373 17.4967 12.6583M11.8967 11.7667C11.6678 12.0123 11.3918 12.2093 11.0851 12.3459C10.7785 12.4826 10.4474 12.556 10.1118 12.562C9.77608 12.5679 9.44265 12.5061 9.13136 12.3804C8.82006 12.2547 8.53728 12.0675 8.29989 11.8301C8.06249 11.5927 7.87534 11.31 7.74961 10.9987C7.62387 10.6874 7.56212 10.3539 7.56804 10.0183C7.57397 9.68258 7.64744 9.35154 7.78408 9.04487C7.92072 8.73821 8.11773 8.46221 8.36335 8.23333" stroke="black" stroke-width="2" stroke-linecap="round" stroke-linejoin="round"/>
<path d="M0.963348 0.833328L19.2967 19.1667" stroke="black" stroke-width="2" stroke-linecap="round" stroke-linejoin="round"/>
</g>
<defs>
<clipPath id="clip0_255_195">
<rect width="20" height="20" fill="white" transform="translate(0.130005)"/>
</clipPath>
</defs>
</svg>
