<svg width="20" height="20" viewBox="0 0 20 20" fill="none" xmlns="http://www.w3.org/2000/svg">
<path d="M12.4648 7.5784C12.5096 7.7708 12.5337 7.97174 12.5337 8.17765C12.5337 8.90726 12.2375 9.56802 11.7594 10.0464C11.6659 10.1392 11.5657 10.2254 11.4593 10.3032C11.6295 10.3547 11.7964 10.4152 11.9599 10.485C13.5394 11.1615 14.7772 12.694 14.7772 15.057C14.7772 15.2869 14.5902 15.4739 14.36 15.4739C14.1299 15.4739 13.9428 15.2871 13.9428 15.057C13.9428 13.078 12.9283 11.8044 11.6338 11.2499C11.1282 11.034 10.5813 10.9242 10.0371 10.9231C9.49281 10.922 8.94699 11.0288 8.44532 11.2442C7.1732 11.7909 6.18164 13.0554 6.18164 15.057C6.18164 15.2869 5.99469 15.4739 5.76448 15.4739C5.53441 15.4739 5.34731 15.2871 5.34731 15.057C5.34731 12.669 6.55999 11.1482 8.11644 10.4797C8.21215 10.4388 8.30897 10.4008 8.40705 10.3666C8.26768 10.2721 8.13834 10.1646 8.0196 10.0466C7.54147 9.56824 7.24527 8.90748 7.24527 8.17787C7.24527 7.97194 7.26885 7.77115 7.31363 7.57862C7.23802 7.56635 7.16477 7.55338 7.09361 7.54055C6.19552 7.3738 5.64013 7.06219 5.64013 6.6464C5.64013 6.33143 5.9094 6.08965 6.38196 5.9296C6.649 5.83897 7.00336 5.7595 7.42163 5.69745V3.88127C7.42163 3.55333 7.77043 3.31952 8.33476 3.20587C8.73 3.12696 9.26535 3.07774 9.84642 3.07774C10.427 3.07774 10.9628 3.12696 11.3581 3.20587C11.9219 3.31951 12.2712 3.55333 12.2712 3.88127L12.3199 5.69242C12.7488 5.75502 13.1138 5.83506 13.3876 5.9268C13.8658 6.08686 14.1384 6.3296 14.1384 6.64638C14.1384 7.06214 13.583 7.37378 12.6844 7.54054C12.6138 7.55336 12.5405 7.56633 12.4643 7.5786L12.4648 7.5784ZM10.9234 12.4363L11.2499 12.6164C11.27 12.5544 11.2796 12.4933 11.2796 12.4335C11.2796 12.3748 11.2701 12.3154 11.251 12.2556L10.9234 12.4363ZM11.2033 13.5414L10.0623 12.9119L8.92136 13.5414C8.73553 13.6432 8.50477 13.5884 8.3834 13.4205C8.13088 13.1022 8.01102 12.7676 8.01102 12.4335C8.01102 12.0777 8.14649 11.7375 8.40015 11.4309C8.53339 11.2703 8.76235 11.235 8.9359 11.3397L10.0624 11.9613L11.1888 11.3397C11.3624 11.2351 11.5913 11.2703 11.7246 11.4309C11.9782 11.7375 12.1137 12.0777 12.1137 12.4335C12.1137 12.7676 11.9939 13.1022 11.7413 13.4205C11.6198 13.5884 11.3892 13.6432 11.2034 13.5414H11.2033ZM8.87475 12.6166L9.20122 12.4364L8.87364 12.2557C8.85466 12.3155 8.84448 12.3749 8.84448 12.4336C8.84448 12.4934 8.85452 12.5545 8.87475 12.6166ZM8.10603 7.67766C8.06124 7.83661 8.03766 8.00448 8.03766 8.17794C8.03766 8.68935 8.24485 9.15212 8.5797 9.4866C8.91454 9.82123 9.3776 10.0288 9.8892 10.0288C10.4009 10.0288 10.8646 9.82121 11.1998 9.48771C11.5335 9.15197 11.7413 8.68921 11.7413 8.17794C11.7413 8.00449 11.7171 7.83662 11.6729 7.67766C11.135 7.72855 10.5285 7.75769 9.88974 7.75769C9.25034 7.75769 8.64399 7.72855 8.10603 7.67766ZM11.2033 3.9791C10.8651 3.91134 10.3853 3.86882 9.84681 3.86882C9.30757 3.86882 8.82832 3.91134 8.48973 3.9791C7.91309 4.09497 8.21376 5.02371 8.21376 6.04318C8.21376 6.24131 8.06546 6.41197 7.86441 6.43596C7.34542 6.49744 6.921 6.58082 6.63609 6.67716C6.77379 6.69222 6.98042 6.7169 7.2363 6.76389C7.90767 6.88868 8.8459 6.96592 9.89022 6.96592C10.9338 6.96592 11.8717 6.88868 12.5436 6.76389C12.8 6.7169 13.006 6.69222 13.1454 6.67716L13.1382 6.67493C12.8487 6.57817 12.4176 6.49424 11.8908 6.43317C11.6988 6.41016 11.5464 6.25024 11.5414 6.05157C11.5123 5.03209 11.7856 4.0961 11.2038 3.97914L11.2033 3.9791ZM10.0001 0C12.7609 0 15.2619 1.11906 17.0713 2.92743C18.8808 4.73581 20 7.23456 20 9.99402C20 15.5129 15.5226 19.9882 10.0001 19.9882C7.23933 19.9882 4.73907 18.8691 2.92932 17.0608C1.11978 15.2524 0 12.7536 0 9.99416C0 4.47524 4.47742 0 9.99989 0H10.0001ZM16.4819 3.51662C14.8231 1.85938 12.5313 0.833763 10.0001 0.833763C4.93766 0.833763 0.834194 4.93494 0.834194 9.99413C0.834194 12.5238 1.85993 14.8145 3.51879 16.4718C5.1771 18.129 7.46867 19.1546 9.99989 19.1546C15.0623 19.1546 19.1662 15.0535 19.1662 9.99427C19.1662 7.46464 18.1399 5.17387 16.4816 3.51662H16.4819Z" fill="black" fill-opacity="0.8"/>
<path d="M0.00205031 19.9964H0.00144826H0.000244141V19.9952V19.9946C0.000545169 19.9943 0.000996703 19.994 0.00144826 19.994H0.00205031V19.9946H0.00144826L0.000846198 19.9952V19.9958H0.00144826H0.00205031V19.9964Z" fill="black" fill-opacity="0.8"/>
<path d="M0.00378574 19.9951H0.00311358V19.9957V19.9964H0.00244141V19.9944H0.00311358H0.00378574V19.9951Z" fill="black" fill-opacity="0.8"/>
<path d="M0.00567862 19.9957H0.00433428H0.00500645H0.00567862V19.9964H0.00500645H0.00366211V19.9957V19.9951C0.00399819 19.9947 0.00450231 19.9944 0.00500645 19.9944V19.9951C0.00534253 19.9951 0.00567862 19.9954 0.00567862 19.9957Z" fill="black" fill-opacity="0.8"/>
<path d="M0.00763174 19.9951V19.9964H0.00695957H0.0062874H0.00561523V19.9957C0.00595132 19.9954 0.00645544 19.9951 0.00695957 19.9951H0.0062874H0.00561523V19.9944H0.0062874H0.00695957V19.9951H0.00763174Z" fill="black" fill-opacity="0.8"/>
<path d="M0.00817042 19.994V19.9946H0.00877247V19.9952H0.00817042V19.9958H0.00877247V19.9964H0.00817042H0.00756836V19.9958V19.994H0.00817042Z" fill="black" fill-opacity="0.8"/>
<path d="M0.0110497 19.9957H0.00970537H0.0103775H0.0110497V19.9964H0.0103775H0.0090332V19.9957V19.9951C0.00936929 19.9947 0.0098734 19.9944 0.0103775 19.9944V19.9951C0.0107136 19.9951 0.0110497 19.9954 0.0110497 19.9957Z" fill="black" fill-opacity="0.8"/>
<path d="M0.0119463 19.9952V19.994H0.0125484V19.9964H0.0119463H0.0113442H0.0107422V19.9958V19.9952L0.0113442 19.9946H0.0119463V19.9952ZM0.0119463 19.9958V19.9952H0.0113442V19.9958H0.0119463Z" fill="black" fill-opacity="0.8"/>
<path d="M0.014876 19.9958V19.9952H0.0142739V19.9958H0.014876ZM0.0142739 19.9952V19.9946H0.014876C0.015177 19.9946 0.015478 19.9949 0.015478 19.9952V19.9958V19.9964H0.014876H0.0142739H0.0136719V19.994H0.0142739V19.9952Z" fill="black" fill-opacity="0.8"/>
<path d="M0.0158691 19.9944H0.0164712L0.0170733 19.9956V19.9944H0.0176753L0.0170733 19.9962C0.0170733 19.9965 0.0167722 19.9968 0.0164712 19.9968H0.0158691V19.9962H0.0164712L0.0158691 19.9944Z" fill="black" fill-opacity="0.8"/>
<path d="M0.0185547 19.994H0.0191822V19.9965C0.0191822 19.9968 0.0188684 19.9972 0.0185547 19.9972V19.994Z" fill="black" fill-opacity="0.8"/>
<path d="M0.0215478 19.9957H0.0202034H0.0208756H0.0215478V19.9964H0.0208756H0.0195312V19.9957V19.9951C0.0198673 19.9947 0.0203715 19.9944 0.0208756 19.9944V19.9951C0.0212117 19.9951 0.0215478 19.9954 0.0215478 19.9957Z" fill="black" fill-opacity="0.8"/>
<path d="M0.0235009 19.9951V19.9964H0.0228287V19.9957V19.9951H0.0221565V19.9957V19.9964H0.0214844V19.9944H0.0221565H0.0228287C0.0231648 19.9944 0.0235009 19.9947 0.0235009 19.9951Z" fill="black" fill-opacity="0.8"/>
<path d="M0.0234375 19.9946H0.0240396V19.9964H0.0234375V19.9946ZM0.0234375 19.994H0.0240396V19.9946H0.0234375V19.994Z" fill="black" fill-opacity="0.8"/>
<path d="M0.0266747 19.9957H0.0253304H0.0260025H0.0266747V19.9964H0.0260025H0.0246582V19.9957V19.9951C0.0249943 19.9947 0.0254984 19.9944 0.0260025 19.9944V19.9951C0.0263386 19.9951 0.0266747 19.9954 0.0266747 19.9957Z" fill="black" fill-opacity="0.8"/>
<path d="M0.0273438 19.994H0.0291499V19.9946H0.0285479V19.9964H0.0279458V19.9946H0.0273438V19.994Z" fill="black" fill-opacity="0.8"/>
<path d="M0.0306412 19.9951H0.029969V19.9957H0.0306412V19.9951ZM0.0306412 19.9944V19.9951C0.0309773 19.9951 0.0313134 19.9954 0.0313134 19.9957L0.0306412 19.9964H0.0292969V19.9957V19.9951C0.029633 19.9947 0.0301371 19.9944 0.0306412 19.9944Z" fill="black" fill-opacity="0.8"/>
<path d="M0.0331325 19.995V19.9944H0.03376V19.995H0.0343875V19.9963H0.03376V19.9956V19.995H0.0331325V19.9956V19.9963H0.032505V19.9956V19.995H0.0318775V19.9956V19.9963H0.03125V19.9944H0.0318775H0.032505C0.0328188 19.9944 0.0331325 19.9947 0.0331325 19.995Z" fill="black" fill-opacity="0.8"/>
<path d="M0.0351397 19.9958V19.9952H0.0345376V19.9958H0.0351397ZM0.0345376 19.9952V19.9946H0.0351397C0.0354407 19.9946 0.0357417 19.9949 0.0357417 19.9952V19.9958V19.9964H0.0351397H0.0345376H0.0339355V19.994H0.0345376V19.9952Z" fill="black" fill-opacity="0.8"/>
<path d="M0.037233 19.9951H0.0365608V19.9957H0.037233V19.9951ZM0.037233 19.9944V19.9951C0.0375691 19.9951 0.0379052 19.9954 0.0379052 19.9957L0.037233 19.9964H0.0358887V19.9957V19.9951C0.0362248 19.9947 0.0367289 19.9944 0.037233 19.9944Z" fill="black" fill-opacity="0.8"/>
<path d="M0.0401024 19.9944V19.9951H0.0394303H0.0387581V19.9957H0.0394303H0.0401024V19.9964H0.0394303H0.0380859V19.9957V19.9951C0.038422 19.9947 0.0389261 19.9944 0.0394303 19.9944H0.0401024Z" fill="black" fill-opacity="0.8"/>
<path d="M0.00144826 19.9968V19.9974V19.998H0.000846198H0.000244141V19.9974H0.000846198C0.000846198 19.9971 0.00099671 19.9968 0.00144826 19.9968Z" fill="black" fill-opacity="0.8"/>
<path d="M0.00305332 19.9985H0.00238115V19.9991V19.9998H0.00170898V19.9978H0.00238115H0.00305332V19.9985Z" fill="black" fill-opacity="0.8"/>
<path d="M0.00451817 19.9985H0.003846V19.9991H0.00451817V19.9985ZM0.00451817 19.9978V19.9985C0.00485425 19.9985 0.00519034 19.9988 0.00519034 19.9991L0.00451817 19.9998H0.00317383V19.9991V19.9985C0.00350991 19.9981 0.00401403 19.9978 0.00451817 19.9978Z" fill="black" fill-opacity="0.8"/>
<path d="M0.00676533 19.9984V19.9978H0.00739284V19.9984H0.00802034V19.9997H0.00739284V19.9991V19.9984H0.00676533V19.9991V19.9997H0.00613783V19.9991V19.9984H0.00551032V19.9991V19.9997H0.00488281V19.9978H0.00551032H0.00613783C0.00645158 19.9978 0.00676533 19.9981 0.00676533 19.9984Z" fill="black" fill-opacity="0.8"/>
<path d="M0.00939112 19.9968V19.9974H0.00999318V19.998H0.00939112V19.9986H0.00999318V19.9992H0.00939112H0.00878906V19.9986V19.9968H0.00939112Z" fill="black" fill-opacity="0.8"/>
<path d="M0.0118159 19.998V19.9992H0.0112139V19.9986V19.998H0.0106118V19.9986V19.9992H0.0100098V19.9968H0.0106118V19.998V19.9974H0.0112139C0.0115149 19.9974 0.0118159 19.9977 0.0118159 19.998Z" fill="black" fill-opacity="0.8"/>
<path d="M0.0139794 19.9991H0.0126351H0.0133072H0.0139794V19.9998H0.0133072H0.0119629V19.9991V19.9985C0.012299 19.9981 0.0128031 19.9978 0.0133072 19.9978V19.9985C0.0136433 19.9985 0.0139794 19.9988 0.0139794 19.9991Z" fill="black" fill-opacity="0.8"/>
<path d="M0.0148926 19.9968H0.0154946L0.0166988 19.9986V19.9968H0.0173008V19.9992H0.0166988L0.0154946 19.9974V19.9992H0.0148926V19.9968Z" fill="black" fill-opacity="0.8"/>
<path d="M0.0186783 19.9985H0.0180062V19.9991H0.0186783V19.9985ZM0.0186783 19.9978V19.9985C0.0190144 19.9985 0.0193505 19.9988 0.0193505 19.9991L0.0186783 19.9998H0.017334V19.9991V19.9985C0.0176701 19.9981 0.0181742 19.9978 0.0186783 19.9978Z" fill="black" fill-opacity="0.8"/>
<path d="M0.019043 19.9991V19.9978H0.0197151V19.9985V19.9991H0.0203873V19.9978H0.0210595V19.9998H0.0203873H0.0197151H0.019043V19.9991Z" fill="black" fill-opacity="0.8"/>
<path d="M0.0232567 19.9985V19.9998H0.0225846V19.9991V19.9985H0.0219124V19.9991V19.9998H0.0212402V19.9978H0.0219124H0.0225846C0.0229207 19.9978 0.0232567 19.9981 0.0232567 19.9985Z" fill="black" fill-opacity="0.8"/>
<path d="M0.0241699 19.9968H0.025374C0.0256751 19.9968 0.0259761 19.9971 0.0259761 19.9974V19.998V19.9986H0.025374H0.024772V19.9992H0.0241699V19.9968ZM0.024772 19.9974V19.998H0.025374H0.0259761C0.0259761 19.9977 0.0256751 19.9974 0.025374 19.9974H0.024772Z" fill="black" fill-opacity="0.8"/>
<path d="M0.0274674 19.9985H0.0267952V19.9991V19.9998H0.026123V19.9978H0.0267952H0.0274674V19.9985Z" fill="black" fill-opacity="0.8"/>
<path d="M0.0289322 19.9985H0.0282601V19.9991H0.0289322V19.9985ZM0.0289322 19.9978V19.9985C0.0292683 19.9985 0.0296044 19.9988 0.0296044 19.9991L0.0289322 19.9998H0.0275879V19.9991V19.9985C0.027924 19.9981 0.0284281 19.9978 0.0289322 19.9978Z" fill="black" fill-opacity="0.8"/>
<path d="M0.029541 19.9975H0.0301685V19.9993C0.0301685 19.9996 0.0298548 20 0.029541 20V19.9975ZM0.029541 19.9968H0.0301685V19.9975H0.029541V19.9968Z" fill="black" fill-opacity="0.8"/>
<path d="M0.0325341 19.9991H0.0311897H0.0318619H0.0325341V19.9998H0.0318619H0.0305176V19.9991V19.9985C0.0308537 19.9981 0.0313578 19.9978 0.0318619 19.9978V19.9985C0.032198 19.9985 0.0325341 19.9988 0.0325341 19.9991Z" fill="black" fill-opacity="0.8"/>
<path d="M0.0344872 19.9978V19.9985H0.033815H0.0331429V19.9991H0.033815H0.0344872V19.9998H0.033815H0.0324707V19.9991V19.9985C0.0328068 19.9981 0.0333109 19.9978 0.033815 19.9978H0.0344872Z" fill="black" fill-opacity="0.8"/>
<path d="M0.0345376 19.9968V19.9974H0.0351397V19.998H0.0345376V19.9986H0.0351397V19.9992H0.0345376H0.0339355V19.9986V19.9968H0.0345376Z" fill="black" fill-opacity="0.8"/>
</svg>
