<svg width="19" height="19" viewBox="0 0 19 19" fill="none" xmlns="http://www.w3.org/2000/svg">
<g clip-path="url(#clip0_662_4897)">
<path d="M7.80583 15.0421L9.13583 13.9179C9.33374 13.7516 9.66625 13.7516 9.87208 13.9179L11.1942 15.0421C11.5029 15.2004 11.8829 15.0421 11.9937 14.7096L12.2471 13.9496C12.3104 13.7675 12.2471 13.4983 12.1125 13.3637L10.8142 12.0575C10.7142 11.9459 10.6555 11.8034 10.6479 11.6537V10.1891C10.6479 9.85664 10.8933 9.69831 11.2021 9.82498L13.8542 10.965C14.2896 11.155 14.6537 10.9175 14.6537 10.4425V9.70623C14.6537 9.32623 14.3687 8.88289 14.0125 8.73248L10.8933 7.38664C10.8245 7.35314 10.766 7.30157 10.7242 7.23743C10.6823 7.17329 10.6587 7.09899 10.6558 7.02248V5.38373C10.6558 4.84539 10.26 4.21206 9.78499 3.96664C9.70035 3.92373 9.60678 3.90137 9.51187 3.90137C9.41696 3.90137 9.32339 3.92373 9.23874 3.96664C8.75583 4.20414 8.36791 4.84539 8.36791 5.38373V7.02248C8.36791 7.16498 8.25708 7.33123 8.13041 7.38664L5.01125 8.73248C4.66291 8.88289 4.37 9.32623 4.37 9.70623V10.4425C4.37 10.9175 4.72625 11.155 5.16958 10.965L7.82166 9.82498C8.1225 9.69039 8.37583 9.85664 8.37583 10.1891V11.6537C8.37583 11.7883 8.29666 11.9704 8.20958 12.0575L6.88749 13.3558C6.75291 13.4904 6.68958 13.7596 6.75291 13.9416L7.00625 14.7016C7.11708 15.0421 7.48916 15.2004 7.80583 15.0421Z" stroke="#888888" stroke-linecap="round" stroke-linejoin="round"/>
<path d="M7.12501 17.4163H11.875C15.8333 17.4163 17.4167 15.833 17.4167 11.8747V7.12467C17.4167 3.16634 15.8333 1.58301 11.875 1.58301H7.12501C3.16668 1.58301 1.58334 3.16634 1.58334 7.12467V11.8747C1.58334 15.833 3.16668 17.4163 7.12501 17.4163Z" stroke="#888888" stroke-width="1.5" stroke-linecap="round" stroke-linejoin="round"/>
</g>
<defs>
<clipPath id="clip0_662_4897">
<rect width="19" height="19" fill="white"/>
</clipPath>
</defs>
</svg>
