<svg width="18" height="18" viewBox="0 0 18 18" fill="none" xmlns="http://www.w3.org/2000/svg">
<g clip-path="url(#clip0_538_618)">
<path d="M8.99991 10.0726C9.30721 10.0726 9.61149 10.0121 9.89539 9.89446C10.1793 9.77686 10.4373 9.6045 10.6545 9.38721C10.8718 9.16992 11.0442 8.91196 11.1618 8.62806C11.2794 8.34416 11.3399 8.03987 11.3399 7.73258C11.3399 7.42529 11.2794 7.121 11.1618 6.8371C11.0442 6.5532 10.8718 6.29524 10.6545 6.07795C10.4373 5.86066 10.1793 5.6883 9.89539 5.5707C9.61149 5.4531 9.30721 5.39258 8.99991 5.39258C8.37931 5.39258 7.78412 5.63911 7.34528 6.07795C6.90645 6.51678 6.65991 7.11197 6.65991 7.73258C6.65991 8.35318 6.90645 8.94837 7.34528 9.38721C7.78412 9.82604 8.37931 10.0726 8.99991 10.0726Z" stroke="black" stroke-width="1.5"/>
<path d="M2.71503 6.3675C4.19253 -0.127498 13.815 -0.119998 15.285 6.375C16.1475 10.185 13.7775 13.41 11.7 15.405C10.9741 16.1052 10.0048 16.4964 8.99628 16.4964C7.98771 16.4964 7.01847 16.1052 6.29253 15.405C4.22253 13.41 1.85253 10.1775 2.71503 6.3675Z" stroke="black" stroke-width="1.5"/>
</g>
<defs>
<clipPath id="clip0_538_618">
<rect width="18" height="18" fill="white"/>
</clipPath>
</defs>
</svg>
