<svg width="15" height="15" viewBox="0 0 15 15" fill="none" xmlns="http://www.w3.org/2000/svg">
<g clip-path="url(#clip0_361_811)">
<path d="M7.50005 8.39365C7.75613 8.39365 8.0097 8.34321 8.24628 8.24522C8.48287 8.14722 8.69783 8.00358 8.87891 7.82251C9.05998 7.64144 9.20362 7.42647 9.30161 7.18988C9.39961 6.9533 9.45005 6.69973 9.45005 6.44365C9.45005 6.18757 9.39961 5.934 9.30161 5.69742C9.20362 5.46083 9.05998 5.24587 8.87891 5.06479C8.69783 4.88372 8.48287 4.74008 8.24628 4.64209C8.0097 4.54409 7.75613 4.49365 7.50005 4.49365C6.98288 4.49365 6.48689 4.6991 6.12119 5.06479C5.75549 5.43049 5.55005 5.92648 5.55005 6.44365C5.55005 6.96082 5.75549 7.45681 6.12119 7.82251C6.48689 8.18821 6.98288 8.39365 7.50005 8.39365Z" stroke="#858585"/>
<path d="M2.26244 5.30625C3.49369 -0.106249 11.5124 -0.0999984 12.7374 5.3125C13.4562 8.4875 11.4812 11.175 9.74994 12.8375C9.14499 13.421 8.33729 13.747 7.49681 13.747C6.65634 13.747 5.84864 13.421 5.24369 12.8375C3.51869 11.175 1.54369 8.48125 2.26244 5.30625Z" stroke="#858585"/>
</g>
<defs>
<clipPath id="clip0_361_811">
<rect width="15" height="15" fill="white"/>
</clipPath>
</defs>
</svg>
