<svg width="15" height="15" viewBox="0 0 15 15" fill="none" xmlns="http://www.w3.org/2000/svg">
<g clip-path="url(#clip0_290_152)">
<path d="M7.49999 8.39377C7.75607 8.39377 8.00964 8.34334 8.24622 8.24534C8.48281 8.14734 8.69777 8.00371 8.87885 7.82263C9.05992 7.64156 9.20356 7.42659 9.30155 7.19001C9.39955 6.95342 9.44999 6.69985 9.44999 6.44377C9.44999 6.1877 9.39955 5.93413 9.30155 5.69754C9.20356 5.46096 9.05992 5.24599 8.87885 5.06492C8.69777 4.88384 8.48281 4.74021 8.24622 4.64221C8.00964 4.54421 7.75607 4.49377 7.49999 4.49377C6.98282 4.49377 6.48683 4.69922 6.12113 5.06492C5.75543 5.43061 5.54999 5.9266 5.54999 6.44377C5.54999 6.96095 5.75543 7.45694 6.12113 7.82263C6.48683 8.18833 6.98282 8.39377 7.49999 8.39377Z" stroke="white"/>
<path d="M2.2625 5.30625C3.49375 -0.106248 11.5125 -0.0999983 12.7375 5.3125C13.4563 8.4875 11.4813 11.175 9.75 12.8375C9.14505 13.421 8.33735 13.747 7.49688 13.747C6.6564 13.747 5.8487 13.421 5.24375 12.8375C3.51875 11.175 1.54375 8.48125 2.2625 5.30625Z" stroke="white"/>
</g>
<defs>
<clipPath id="clip0_290_152">
<rect width="15" height="15" fill="white"/>
</clipPath>
</defs>
</svg>
