<svg width="19" height="19" viewBox="0 0 19 19" fill="none" xmlns="http://www.w3.org/2000/svg">
<g clip-path="url(#clip0_641_144)">
<path d="M4.75001 6.91683V5.3335C4.75001 2.71308 5.54168 0.583496 9.50001 0.583496C13.0625 0.583496 14.25 2.16683 14.25 4.54183M13.4583 16.4168H5.54168C2.37501 16.4168 1.58334 15.6252 1.58334 12.4585V10.8752C1.58334 7.7085 2.37501 6.91683 5.54168 6.91683H13.4583C16.625 6.91683 17.4167 7.7085 17.4167 10.8752V12.4585C17.4167 15.6252 16.625 16.4168 13.4583 16.4168Z" stroke="#B68934" stroke-width="1.5" stroke-linecap="round" stroke-linejoin="round"/>
<path d="M9.50001 13.6458C10.0249 13.6458 10.5283 13.4373 10.8995 13.0661C11.2707 12.695 11.4792 12.1916 11.4792 11.6667C11.4792 11.1418 11.2707 10.6384 10.8995 10.2672C10.5283 9.89602 10.0249 9.6875 9.50001 9.6875C8.9751 9.6875 8.47169 9.89602 8.10053 10.2672C7.72936 10.6384 7.52084 11.1418 7.52084 11.6667C7.52084 12.1916 7.72936 12.695 8.10053 13.0661C8.47169 13.4373 8.9751 13.6458 9.50001 13.6458Z" stroke="#B68934" stroke-width="1.5" stroke-linecap="round" stroke-linejoin="round"/>
</g>
<defs>
<clipPath id="clip0_641_144">
<rect width="19" height="19" fill="white"/>
</clipPath>
</defs>
</svg>
