<svg width="19" height="20" viewBox="0 0 19 20" fill="none" xmlns="http://www.w3.org/2000/svg">
<path d="M7.9325 14.1567C8.29666 14.6238 8.86666 14.9325 9.49999 14.9325C9.86896 14.9318 10.2304 14.8281 10.5437 14.6332C10.857 14.4383 11.1097 14.1599 11.2734 13.8292C11.4371 13.4985 11.5053 13.1287 11.4703 12.7614C11.4353 12.3941 11.2986 12.0438 11.0754 11.75" stroke="black" stroke-width="1.5" stroke-linecap="round" stroke-linejoin="round"/>
<path d="M2.23251 16.7532C1.74959 16.1515 1.58334 15.1936 1.58334 13.7449V12.1615C1.58334 8.99487 2.37501 8.20321 5.54168 8.20321H13.4583C13.7433 8.20321 14.0046 8.21112 14.25 8.22696C16.7596 8.36946 17.4167 9.27987 17.4167 12.1615V13.7449C17.4167 16.9115 16.625 17.7032 13.4583 17.7032H5.54168C5.25668 17.7032 4.99543 17.6953 4.75001 17.6795M4.75001 8.20321V6.61987C4.75001 3.99946 5.54168 1.86987 9.50001 1.86987C12.7854 1.86987 13.8858 2.96237 14.1708 4.68821M17.4167 1.86987L1.58334 17.7032" stroke="black" stroke-width="1.5" stroke-linecap="round" stroke-linejoin="round"/>
</svg>
