<svg width="19" height="20" viewBox="0 0 19 20" fill="none" xmlns="http://www.w3.org/2000/svg">
<g clip-path="url(#clip0_641_284)">
<path d="M4.75001 7.20345V5.62012C4.75001 2.9997 5.54168 0.870117 9.50001 0.870117C13.0625 0.870117 14.25 2.45345 14.25 4.82845M13.4583 16.7034H5.54168C2.37501 16.7034 1.58334 15.9118 1.58334 12.7451V11.1618C1.58334 7.99512 2.37501 7.20345 5.54168 7.20345H13.4583C16.625 7.20345 17.4167 7.99512 17.4167 11.1618V12.7451C17.4167 15.9118 16.625 16.7034 13.4583 16.7034Z" stroke="#B68934" stroke-width="1.5" stroke-linecap="round" stroke-linejoin="round"/>
<path d="M9.50001 13.9325C10.0249 13.9325 10.5283 13.7239 10.8995 13.3528C11.2707 12.9816 11.4792 12.4782 11.4792 11.9533C11.4792 11.4284 11.2707 10.925 10.8995 10.5538C10.5283 10.1826 10.0249 9.97412 9.50001 9.97412C8.9751 9.97412 8.47169 10.1826 8.10053 10.5538C7.72936 10.925 7.52084 11.4284 7.52084 11.9533C7.52084 12.4782 7.72936 12.9816 8.10053 13.3528C8.47169 13.7239 8.9751 13.9325 9.50001 13.9325Z" stroke="#B68934" stroke-width="1.5" stroke-linecap="round" stroke-linejoin="round"/>
</g>
<defs>
<clipPath id="clip0_641_284">
<rect width="19" height="19" fill="white" transform="translate(0 0.286621)"/>
</clipPath>
</defs>
</svg>
