<svg width="120" height="36" viewBox="0 0 120 36" fill="none" xmlns="http://www.w3.org/2000/svg">
<rect y="0.648926" width="119.129" height="34.9444" rx="3" fill="#D9D9D9"/>
<path d="M41.2046 22.218H46.7486V24H39.1526V12.336H41.2046V22.218ZM52.4884 24.234C51.2884 24.234 50.2684 23.982 49.4284 23.478C48.5884 22.962 47.9524 22.248 47.5204 21.336C47.1004 20.412 46.8904 19.344 46.8904 18.132C46.8904 16.788 47.1484 15.666 47.6644 14.766C48.1804 13.854 48.8704 13.182 49.7344 12.75C50.5984 12.318 51.5584 12.102 52.6144 12.102C53.8144 12.102 54.8344 12.36 55.6744 12.876C56.5144 13.38 57.1444 14.094 57.5644 15.018C57.9844 15.93 58.1944 16.992 58.1944 18.204C58.1944 19.548 57.9364 20.676 57.4204 21.588C56.9044 22.488 56.2144 23.154 55.3504 23.586C54.4984 24.018 53.5444 24.234 52.4884 24.234ZM52.4884 22.524C53.2684 22.524 53.9284 22.344 54.4684 21.984C55.0084 21.624 55.4104 21.126 55.6744 20.49C55.9384 19.842 56.0704 19.086 56.0704 18.222C56.0704 17.334 55.9444 16.56 55.6924 15.9C55.4404 15.24 55.0564 14.73 54.5404 14.37C54.0244 13.998 53.3824 13.812 52.6144 13.812C51.8224 13.812 51.1564 13.992 50.6164 14.352C50.0764 14.712 49.6744 15.216 49.4104 15.864C49.1464 16.5 49.0144 17.25 49.0144 18.114C49.0144 19.47 49.3084 20.544 49.8964 21.336C50.4844 22.128 51.3484 22.524 52.4884 22.524ZM69.2536 17.43V23.172C68.4976 23.544 67.7896 23.814 67.1296 23.982C66.4696 24.15 65.7496 24.234 64.9696 24.234C63.6616 24.234 62.5936 23.976 61.7656 23.46C60.9376 22.944 60.3316 22.242 59.9476 21.354C59.5636 20.454 59.3716 19.404 59.3716 18.204C59.3716 16.8 59.6236 15.642 60.1276 14.73C60.6436 13.818 61.3276 13.152 62.1796 12.732C63.0316 12.312 63.9856 12.102 65.0416 12.102C66.5176 12.102 67.8256 12.462 68.9656 13.182L68.1016 14.694C67.2016 14.118 66.2296 13.83 65.1856 13.83C63.9256 13.83 62.9956 14.208 62.3956 14.964C61.8076 15.72 61.5136 16.77 61.5136 18.114C61.5136 19.542 61.7896 20.628 62.3416 21.372C62.9056 22.104 63.8116 22.47 65.0596 22.47C65.7916 22.47 66.5056 22.344 67.2016 22.092V19.122H64.4296L64.6636 17.43H69.2536ZM76.2378 24.234C75.0378 24.234 74.0178 23.982 73.1778 23.478C72.3378 22.962 71.7018 22.248 71.2698 21.336C70.8498 20.412 70.6398 19.344 70.6398 18.132C70.6398 16.788 70.8978 15.666 71.4138 14.766C71.9298 13.854 72.6198 13.182 73.4838 12.75C74.3478 12.318 75.3078 12.102 76.3638 12.102C77.5638 12.102 78.5838 12.36 79.4238 12.876C80.2638 13.38 80.8938 14.094 81.3138 15.018C81.7338 15.93 81.9438 16.992 81.9438 18.204C81.9438 19.548 81.6858 20.676 81.1698 21.588C80.6538 22.488 79.9638 23.154 79.0998 23.586C78.2478 24.018 77.2938 24.234 76.2378 24.234ZM76.2378 22.524C77.0178 22.524 77.6778 22.344 78.2178 21.984C78.7578 21.624 79.1598 21.126 79.4238 20.49C79.6878 19.842 79.8198 19.086 79.8198 18.222C79.8198 17.334 79.6938 16.56 79.4418 15.9C79.1898 15.24 78.8058 14.73 78.2898 14.37C77.7738 13.998 77.1318 13.812 76.3638 13.812C75.5718 13.812 74.9058 13.992 74.3658 14.352C73.8258 14.712 73.4238 15.216 73.1598 15.864C72.8958 16.5 72.7638 17.25 72.7638 18.114C72.7638 19.47 73.0578 20.544 73.6458 21.336C74.2338 22.128 75.0978 22.524 76.2378 22.524Z" fill="black"/>
</svg>
