<svg width="18" height="18" viewBox="0 0 18 18" fill="none" xmlns="http://www.w3.org/2000/svg">
<g clip-path="url(#clip0_664_5136)">
<path d="M16.5 6.74965V11.2496C16.5 13.1246 16.125 14.4371 15.285 15.2846L10.5 10.4996L16.2975 4.70215C16.4325 5.29465 16.5 5.96965 16.5 6.74965Z" stroke="black" stroke-opacity="0.5" stroke-width="1.5" stroke-linecap="round" stroke-linejoin="round"/>
<path d="M16.2975 4.7025L4.7025 16.2975C2.445 15.78 1.5 14.22 1.5 11.25V6.75C1.5 3 3 1.5 6.75 1.5H11.25C14.22 1.5 15.78 2.445 16.2975 4.7025Z" stroke="black" stroke-opacity="0.5" stroke-width="1.5" stroke-linecap="round" stroke-linejoin="round"/>
<path d="M15.285 15.285C14.4375 16.125 13.125 16.5 11.25 16.5H6.75001C5.97001 16.5 5.29501 16.4325 4.70251 16.2975L10.5 10.5L15.285 15.285Z" stroke="black" stroke-opacity="0.5" stroke-width="1.5" stroke-linecap="round" stroke-linejoin="round"/>
<path d="M4.68001 5.98504C5.19001 3.78754 8.49002 3.78754 9.00002 5.98504C9.29252 7.27504 8.48251 8.37004 7.77001 9.04504C7.5191 9.2835 7.18617 9.41647 6.84001 9.41647C6.49386 9.41647 6.16093 9.2835 5.91001 9.04504C5.19751 8.37004 4.38001 7.27504 4.68001 5.98504Z" stroke="black" stroke-opacity="0.5" stroke-width="1.5"/>
<path d="M6.82123 6.52539H6.82798" stroke="black" stroke-opacity="0.5" stroke-width="2" stroke-linecap="round" stroke-linejoin="round"/>
</g>
<defs>
<clipPath id="clip0_664_5136">
<rect width="18" height="18" fill="white"/>
</clipPath>
</defs>
</svg>
