<svg width="20" height="20" viewBox="0 0 20 20" fill="none" xmlns="http://www.w3.org/2000/svg">
<path d="M16.4425 17.5C16.4425 14.5975 13.555 12.25 10 12.25C6.445 12.25 3.5575 14.5975 3.5575 17.5M10 10C10.9946 10 11.9484 9.60491 12.6516 8.90165C13.3549 8.19839 13.75 7.24456 13.75 6.25C13.75 5.25544 13.3549 4.30161 12.6516 3.59835C11.9484 2.89509 10.9946 2.5 10 2.5C9.00543 2.5 8.05161 2.89509 7.34834 3.59835C6.64508 4.30161 6.25 5.25544 6.25 6.25C6.25 7.24456 6.64508 8.19839 7.34834 8.90165C8.05161 9.60491 9.00543 10 10 10Z" stroke="#B68934" stroke-width="1.5" stroke-linecap="round" stroke-linejoin="round"/>
</svg>
