<svg width="21" height="21" viewBox="0 0 21 21" fill="none" xmlns="http://www.w3.org/2000/svg">
<path d="M12.5417 5.16668C13.3556 5.32548 14.1036 5.72356 14.69 6.30996C15.2764 6.89635 15.6745 7.6444 15.8333 8.45834M12.5417 1.83334C14.2327 2.02121 15.8096 2.77849 17.0135 3.98085C18.2174 5.18321 18.9767 6.75918 19.1667 8.45001M18.3333 15.1V17.6C18.3343 17.8321 18.2867 18.0618 18.1937 18.2745C18.1008 18.4871 17.9644 18.678 17.7934 18.8349C17.6224 18.9918 17.4205 19.1112 17.2006 19.1856C16.9808 19.26 16.7478 19.2876 16.5167 19.2667C13.9523 18.988 11.4892 18.1118 9.32498 16.7083C7.31151 15.4289 5.60443 13.7218 4.32499 11.7083C2.91663 9.53435 2.04019 7.05917 1.76665 4.48334C1.74583 4.2529 1.77321 4.02064 1.84707 3.80136C1.92092 3.58208 2.03963 3.38058 2.19562 3.20969C2.35162 3.0388 2.54149 2.90227 2.75314 2.80878C2.9648 2.71529 3.1936 2.66689 3.42499 2.66668H5.92498C6.32941 2.6627 6.72148 2.80591 7.02812 3.06962C7.33476 3.33333 7.53505 3.69955 7.59165 4.10001C7.69717 4.90007 7.89286 5.68562 8.17499 6.44168C8.2871 6.73995 8.31137 7.06411 8.24491 7.37574C8.17844 7.68738 8.02404 7.97344 7.79998 8.20001L6.74165 9.25834C7.92795 11.3446 9.65536 13.072 11.7417 14.2583L12.8 13.2C13.0266 12.976 13.3126 12.8216 13.6243 12.7551C13.9359 12.6886 14.26 12.7129 14.5583 12.825C15.3144 13.1071 16.0999 13.3028 16.9 13.4083C17.3048 13.4655 17.6745 13.6693 17.9388 13.9813C18.203 14.2932 18.3435 14.6913 18.3333 15.1Z" stroke="black" stroke-width="2" stroke-linecap="round" stroke-linejoin="round"/>
</svg>
