<svg width="15" height="15" viewBox="0 0 15 15" fill="none" xmlns="http://www.w3.org/2000/svg">
<g clip-path="url(#clip0_329_85)">
<path d="M9.40624 3.125C10.0167 3.2441 10.5777 3.54266 11.0175 3.98246C11.4573 4.42226 11.7559 4.98329 11.875 5.59375M9.40624 0.625C10.6745 0.765898 11.8572 1.33386 12.7601 2.23563C13.663 3.1374 14.2325 4.31938 14.375 5.5875M13.75 10.575V12.45C13.7507 12.6241 13.715 12.7964 13.6453 12.9558C13.5756 13.1153 13.4733 13.2585 13.345 13.3762C13.2168 13.4938 13.0653 13.5834 12.9005 13.6392C12.7356 13.695 12.5608 13.7157 12.3875 13.7C10.4643 13.491 8.61686 12.8338 6.99374 11.7813C5.48363 10.8217 4.20332 9.54136 3.24374 8.03125C2.18748 6.40075 1.53014 4.54437 1.32499 2.6125C1.30937 2.43967 1.32991 2.26548 1.3853 2.10102C1.44069 1.93656 1.52972 1.78543 1.64672 1.65726C1.76371 1.5291 1.90612 1.42669 2.06486 1.35658C2.2236 1.28646 2.3952 1.25016 2.56874 1.25H4.44374C4.74706 1.24701 5.04111 1.35442 5.27109 1.55221C5.50107 1.74999 5.65129 2.02465 5.69374 2.325C5.77288 2.92504 5.91964 3.5142 6.13124 4.08125C6.21533 4.30495 6.23353 4.54807 6.18368 4.7818C6.13383 5.01553 6.01803 5.23007 5.84999 5.4L5.05624 6.19375C5.94596 7.75847 7.24152 9.05403 8.80624 9.94375L9.59999 9.15C9.76992 8.98196 9.98446 8.86616 10.2182 8.81631C10.4519 8.76646 10.695 8.78466 10.9187 8.86875C11.4858 9.08034 12.0749 9.22711 12.675 9.30625C12.9786 9.34908 13.2559 9.502 13.4541 9.73594C13.6523 9.96987 13.7576 10.2685 13.75 10.575Z" stroke="#858585" stroke-linecap="round" stroke-linejoin="round"/>
</g>
<defs>
<clipPath id="clip0_329_85">
<rect width="15" height="15" fill="white"/>
</clipPath>
</defs>
</svg>
