<svg width="15" height="20" viewBox="0 0 15 20" fill="none" xmlns="http://www.w3.org/2000/svg">
<g clip-path="url(#clip0_655_1359)">
<path d="M12.0444 20C12.8283 20 13.58 19.6877 14.1344 19.1316C14.6887 18.5755 15 17.8213 15 17.0349V2.96725C15 2.18083 14.6887 1.42664 14.1344 0.870518C13.5801 0.314433 12.8283 0.00210529 12.0444 0.00210529H5.5714C5.54327 -0.000701763 5.515 -0.000701763 5.48687 0.00210529L5.43415 0.0190954H5.40882V0.0189476C5.38983 0.0275163 5.37142 0.0374149 5.3539 0.0486433H5.33696C5.31428 0.064156 5.29307 0.0818847 5.27364 0.10168L0.107677 5.29718C0.088091 5.31653 0.0704197 5.33781 0.0549584 5.36071V5.3777C0.0437665 5.39528 0.0338994 5.4136 0.0253578 5.43266V5.45807C0.00798063 5.50195 -0.00056037 5.54863 2.84957e-05 5.59576V17.0329C2.84957e-05 17.8193 0.311343 18.5735 0.865646 19.1295C1.41994 19.6856 2.17174 19.998 2.95563 19.998L12.0444 20ZM5.14917 1.44869V4.32708C5.14917 4.55179 5.06022 4.7672 4.90191 4.92616C4.74346 5.08498 4.52875 5.17422 4.30475 5.17422H1.43563L5.14917 1.44869ZM0.838232 17.0352V6.02166H4.30481C4.75279 6.02166 5.18234 5.84304 5.49913 5.5254C5.81575 5.20762 5.99379 4.77666 5.99379 4.32723V0.849452H12.0445C12.6045 0.849452 13.1414 1.07268 13.5374 1.4698C13.9332 1.86707 14.1557 2.40572 14.1557 2.96744V17.035C14.1557 17.5968 13.9332 18.1354 13.5374 18.5327C13.1414 18.9298 12.6045 19.153 12.0445 19.153H2.94955C2.38964 19.153 1.85272 18.9298 1.45673 18.5327C1.06089 18.1354 0.838383 17.5968 0.838383 17.035L0.838232 17.0352Z" fill="black"/>
<path d="M3.8448 14.3533C3.61154 14.3533 3.42261 14.543 3.42261 14.777V15.7004C3.42261 15.9344 3.61155 16.1239 3.8448 16.1239C4.07792 16.1239 4.267 15.9344 4.267 15.7004V14.777C4.267 14.6646 4.22253 14.5569 4.1433 14.4774C4.06407 14.398 3.95673 14.3533 3.8448 14.3533Z" fill="black"/>
<path d="M7.49715 12.4554C7.26388 12.4554 7.07495 12.6451 7.07495 12.8792V15.7024C7.07495 15.9363 7.26389 16.126 7.49715 16.126C7.73041 16.126 7.91934 15.9363 7.91934 15.7024V12.8792C7.91934 12.7667 7.87487 12.659 7.79564 12.5795C7.71656 12.5002 7.60907 12.4554 7.49715 12.4554Z" fill="black"/>
<path d="M11.1494 11.7123C10.9163 11.7123 10.7272 11.902 10.7272 12.136V15.7027C10.7272 15.9366 10.9163 16.1263 11.1494 16.1263C11.3826 16.1263 11.5716 15.9366 11.5716 15.7027V12.136C11.5716 12.0236 11.5271 11.9159 11.448 11.8364C11.3688 11.757 11.2614 11.7123 11.1494 11.7123Z" fill="black"/>
<path d="M5.06507 10.162L5.86942 10.9689C6.03333 11.129 6.29456 11.129 6.45848 10.9689L8.29942 9.22369L8.97492 9.9036C9.05415 9.98308 9.16165 10.0277 9.27372 10.0277C9.38578 10.0277 9.49314 9.98308 9.57237 9.9036L11.1643 8.30652V9.6811C11.1643 9.91512 11.3532 10.1047 11.5865 10.1047C11.8196 10.1047 12.0087 9.91511 12.0087 9.6811V7.26451C12.0087 7.15208 11.9642 7.04438 11.885 6.96489C11.8059 6.88556 11.6984 6.84094 11.5865 6.84094H9.18609C8.95282 6.84094 8.76389 7.03049 8.76389 7.2645C8.76389 7.49837 8.95283 7.68806 9.18609 7.68806H10.5879L9.26843 9.00545L8.60767 8.34256C8.44376 8.18241 8.18253 8.18241 8.01861 8.34256L6.17767 10.0878L5.38598 9.29357C5.23386 9.13992 4.99074 9.12618 4.82226 9.26181L2.81873 10.8778L3.34859 11.5386L5.06507 10.162Z" fill="black"/>
</g>
<defs>
<clipPath id="clip0_655_1359">
<rect width="15" height="20" fill="white"/>
</clipPath>
</defs>
</svg>
