<svg width="20" height="20" viewBox="0 0 20 20" fill="none" xmlns="http://www.w3.org/2000/svg">
<path d="M18.3333 7.5001V12.5001C18.3333 14.5834 17.9166 16.0418 16.9833 16.9834L11.6666 11.6668L18.1083 5.2251C18.2583 5.88343 18.3333 6.63343 18.3333 7.5001Z" stroke="black" stroke-linecap="round" stroke-linejoin="round"/>
<path d="M18.1083 5.22484L5.22496 18.1082C2.71663 17.5332 1.66663 15.7998 1.66663 12.4998V7.49984C1.66663 3.33317 3.33329 1.6665 7.49996 1.6665H12.5C15.8 1.6665 17.5333 2.7165 18.1083 5.22484Z" stroke="black" stroke-linecap="round" stroke-linejoin="round"/>
<path d="M16.9833 16.9832C16.0416 17.9165 14.5833 18.3332 12.5 18.3332H7.49998C6.63331 18.3332 5.88331 18.2582 5.22498 18.1082L11.6666 11.6665L16.9833 16.9832Z" stroke="black" stroke-linecap="round" stroke-linejoin="round"/>
<path d="M5.19998 6.6501C5.76664 4.20843 9.43331 4.20843 9.99998 6.6501C10.325 8.08343 9.42498 9.3001 8.63331 10.0501C8.35451 10.3151 7.98459 10.4628 7.59998 10.4628C7.21536 10.4628 6.84544 10.3151 6.56664 10.0501C5.77498 9.3001 4.86664 8.08343 5.19998 6.6501Z" stroke="black"/>
<path d="M7.57922 7.25H7.58672" stroke="black" stroke-linecap="round" stroke-linejoin="round"/>
</svg>
