<svg width="75" height="70" viewBox="0 0 75 70" fill="none" xmlns="http://www.w3.org/2000/svg">
<path d="M22.45 46.5833L30.6667 41.0667C31.9833 40.1833 33.8833 40.2833 35.0667 41.3L35.6167 41.7833C36.9167 42.9 39.0167 42.9 40.3167 41.7833L47.25 35.8333C48.55 34.7167 50.65 34.7167 51.95 35.8333L54.6667 38.1667M11 69H64C69.5228 69 74 64.5228 74 59V11C74 5.47715 69.5228 1 64 1H11C5.47715 1 1 5.47715 1 11V59C1 64.5228 5.47715 69 11 69ZM33 51.6667H43C51.3333 51.6667 54.6667 48.3333 54.6667 40V30C54.6667 21.6667 51.3333 18.3333 43 18.3333H33C24.6667 18.3333 21.3333 21.6667 21.3333 30V40C21.3333 48.3333 24.6667 51.6667 33 51.6667ZM33 31.6667C33.8841 31.6667 34.7319 31.3155 35.357 30.6904C35.9821 30.0652 36.3333 29.2174 36.3333 28.3333C36.3333 27.4493 35.9821 26.6014 35.357 25.9763C34.7319 25.3512 33.8841 25 33 25C32.1159 25 31.2681 25.3512 30.643 25.9763C30.0179 26.6014 29.6667 27.4493 29.6667 28.3333C29.6667 29.2174 30.0179 30.0652 30.643 30.6904C31.2681 31.3155 32.1159 31.6667 33 31.6667Z" stroke="#B79308" stroke-width="2" stroke-linecap="round" stroke-linejoin="round"/>
</svg>
