<svg width="20" height="20" viewBox="0 0 20 20" fill="none" xmlns="http://www.w3.org/2000/svg">
<g clip-path="url(#clip0_400_436)">
<path d="M7.49996 18.3332H12.5C16.6666 18.3332 18.3333 16.6665 18.3333 12.4998V7.49984C18.3333 3.33317 16.6666 1.6665 12.5 1.6665H7.49996C3.33329 1.6665 1.66663 3.33317 1.66663 7.49984V12.4998C1.66663 16.6665 3.33329 18.3332 7.49996 18.3332Z" stroke="black" stroke-linecap="round" stroke-linejoin="round"/>
<path d="M8.70833 13.5667L8 12.85M13.5667 11.3417C13.1202 11.7899 12.5593 12.1069 11.9451 12.2583C11.3309 12.4096 10.6869 12.3895 10.0833 12.2L7.925 14.35C7.775 14.5084 7.46667 14.6084 7.24167 14.575L6.24167 14.4417C5.90833 14.4 5.60833 14.0834 5.55833 13.7584L5.425 12.7584C5.39167 12.5417 5.5 12.2334 5.65 12.075L7.8 9.92503C7.43333 8.73337 7.71667 7.38337 8.65833 6.4417C10.0083 5.0917 12.2083 5.0917 13.5667 6.4417C14.9167 7.78337 14.9167 9.98337 13.5667 11.3417Z" stroke="black" stroke-miterlimit="10" stroke-linecap="round" stroke-linejoin="round"/>
<path d="M11.1625 8.9165H11.1698" stroke="black" stroke-linecap="round" stroke-linejoin="round"/>
</g>
<defs>
<clipPath id="clip0_400_436">
<rect width="20" height="20" fill="white"/>
</clipPath>
</defs>
</svg>
