<svg width="20" height="20" viewBox="0 0 20 20" fill="none" xmlns="http://www.w3.org/2000/svg">
<path d="M18.6542 11.6129C18.2193 11.6129 17.8384 11.84 17.6181 12.1806C17.4904 11.9225 17.4194 11.6365 17.4194 11.3458V10.6452C17.4194 9.0442 16.1171 7.74193 14.5161 7.74193H13.2258C13.0107 7.74193 12.8016 7.76713 12.5999 7.81163C12.2651 7.65783 11.9147 7.53931 11.5531 7.46327L11.4108 6.89428C11.9128 6.62066 12.258 6.09446 12.258 5.48385V5.16127H12.5806C13.1142 5.16127 13.5483 4.72709 13.5483 4.19352C13.5483 3.96642 13.4664 3.76035 13.3351 3.59518L13.4173 3.34706C13.5041 3.08741 13.5483 2.81681 13.5483 2.54293C13.5483 1.14072 12.4077 0 11.0054 0H9.54992C8.75155 0 8.00832 0.37847 7.53898 1.01769L7.45603 1.04549C6.85507 1.24581 6.45157 1.80645 6.45157 2.43963C6.45157 2.56059 6.4664 2.68098 6.49578 2.79576L6.68832 3.56678C6.54287 3.73614 6.45157 3.95314 6.45157 4.19351C6.45157 4.72708 6.88574 5.16125 7.41931 5.16125H7.74189V5.48383C7.74189 6.09441 8.08708 6.62064 8.58897 6.89456L8.44668 7.46326C8.44568 7.46355 8.44481 7.46383 8.44352 7.46383C8.06088 7.23256 7.61388 7.09676 7.13447 7.09676H5.67898C5.59445 7.09676 5.51092 7.10324 5.42769 7.11159L5.17322 4.3148L5.44454 4.04349C5.67798 3.81062 5.80643 3.5003 5.80643 3.17034C5.80643 2.48961 5.2523 1.93547 4.57156 1.93547C3.82933 1.93547 3.22579 2.53901 3.22579 3.28124V8.32344C2.83006 8.59216 2.58063 9.0406 2.58063 9.53601C2.58063 9.6554 2.59546 9.77507 2.62484 9.89215L2.81738 10.6632C2.67193 10.833 2.58063 11.05 2.58063 11.2903C2.58063 11.8239 3.0148 12.2581 3.54837 12.2581H3.87095V12.5807C3.87095 13.1912 4.21614 13.7175 4.71803 13.9914L4.57575 14.5601C3.63768 14.7575 2.79248 15.2188 2.11967 15.8858L1.94744 13.9923L2.21875 13.721C2.45219 13.4881 2.58064 13.1778 2.58064 12.8478C2.58064 12.1671 2.02651 11.6129 1.34577 11.6129C0.603539 11.6129 0 12.2165 0 12.9587V17.7716C0 18.6446 0.710267 19.3548 1.58323 19.3548C1.95263 19.3548 2.30227 19.2245 2.58064 18.9981V20H17.4194V18.9977C17.6977 19.2245 18.0474 19.3548 18.4168 19.3548C19.2898 19.3548 20 18.6446 20 17.7716V12.9587C20 12.2165 19.3965 11.6129 18.6542 11.6129ZM18.6542 12.2581C19.0403 12.2581 19.3548 12.5726 19.3548 12.9587V14.8387H18.6228L18.7219 13.7497L18.2371 13.2649C18.1275 13.1551 18.0645 13.0032 18.0645 12.8478C18.0645 12.5227 18.3291 12.2581 18.6542 12.2581L18.6542 12.2581ZM17.88 15.8856C17.483 15.492 17.0255 15.1723 16.5239 14.935C17.0297 14.622 17.4459 14.1907 17.7432 13.675C17.7568 13.6898 17.7668 13.7067 17.7809 13.7211L18.0523 13.9924L17.88 15.8856ZM14.5161 8.38731C15.7609 8.38731 16.7742 9.40055 16.7742 10.6454V11.346C16.7742 11.9383 16.9893 12.5185 17.3684 12.9708C17.0622 13.7347 16.4641 14.3298 15.6946 14.6303C15.6048 14.6061 15.5158 14.5796 15.4242 14.5603L15.2198 13.7426C15.7703 13.3303 16.129 12.6747 16.129 11.9357V10.6943L15.3468 10.5643C14.4342 10.4121 13.552 10.1252 12.7248 9.7113L12.5167 9.60747L12.3522 9.77193C11.8826 10.2421 11.6129 10.893 11.6129 11.5577V11.9357C11.6129 12.6747 11.9716 13.3303 12.5223 13.7424L12.3178 14.5601C12.2249 14.5799 12.1339 14.604 12.0433 14.6285C11.2766 14.3278 10.6768 13.7373 10.3704 12.9763C10.7523 12.5234 10.9677 11.9406 10.9677 11.346V10.6454C10.9677 9.40056 11.9809 8.38732 13.2258 8.38732L14.5161 8.38731ZM13.871 13.5486C12.9816 13.5486 12.2581 12.8251 12.2581 11.9357V11.5577C12.2581 11.138 12.4022 10.726 12.6597 10.3967C13.4791 10.7812 14.3465 11.0515 15.2409 11.2005L15.4839 11.2416V11.9357C15.4839 12.8251 14.7604 13.5486 13.871 13.5486ZM13.108 14.0582C13.3468 14.1444 13.603 14.1937 13.871 14.1937C14.1389 14.1937 14.3952 14.1444 14.6339 14.0582L14.783 14.655C14.2049 14.8892 13.5374 14.8892 12.9594 14.655L13.108 14.0582ZM11.7152 8.17068C10.8816 8.68136 10.3226 9.59811 10.3226 10.6452V11.3458C10.3226 11.8406 10.122 12.3252 9.7719 12.6752L9.60773 12.8403L9.70162 13.0281C9.97524 13.8323 10.5104 14.4969 11.2141 14.9332C10.7738 15.1423 10.3664 15.4158 10.0019 15.7496C9.36533 15.1687 8.57414 14.7473 7.68216 14.56L7.53988 13.9913C8.04189 13.7175 8.38706 13.1913 8.38706 12.5807V12.2581H8.70964C9.24321 12.2581 9.67739 11.8239 9.67739 11.2904C9.67739 11.0633 9.59544 10.8572 9.46411 10.692L9.54634 10.4439C9.63318 10.1842 9.67739 9.91364 9.67739 9.63976C9.67739 9.14941 9.53539 8.69263 9.29416 8.30395C9.52544 8.35882 9.76292 8.38719 9.99997 8.38719C10.4591 8.38719 10.918 8.27975 11.3319 8.07944C11.4612 8.10392 11.589 8.13459 11.7151 8.17074L11.7152 8.17068ZM8.38712 10.9678H8.7097C8.8877 10.9678 9.03228 11.1124 9.03228 11.2903C9.03228 11.4683 8.8877 11.6129 8.7097 11.6129H8.38712V10.9678ZM12.5807 4.51616H12.2581V3.871H12.5807C12.7587 3.871 12.9033 4.01559 12.9033 4.19358C12.9033 4.37158 12.7587 4.51616 12.5807 4.51616ZM7.74196 4.51616H7.41938C7.24139 4.51616 7.0968 4.37158 7.0968 4.19358C7.0968 4.01559 7.24139 3.871 7.41938 3.871H7.74196V4.51616ZM7.41938 3.22584C7.36869 3.22584 7.32002 3.23333 7.27163 3.24068L7.12128 2.63872C7.10487 2.57421 7.0968 2.5071 7.0968 2.4397C7.0968 2.08429 7.32318 1.77036 7.66001 1.65773L7.94903 1.56153L8.01038 1.46922C8.35428 0.953243 8.93002 0.645188 9.55 0.645188H11.0055C12.052 0.645188 12.9033 1.49643 12.9033 2.54295C12.9033 2.74745 12.8704 2.94933 12.8055 3.14332L12.7716 3.24528C12.71 3.23261 12.6462 3.22584 12.5807 3.22584H11.6129V5.4839C11.6129 6.01747 11.1788 6.45164 10.6452 6.45164H9.35486C8.8213 6.45164 8.38712 6.01747 8.38712 5.4839V3.22584L7.41938 3.22584ZM9.35487 7.09681H10.6452C10.6959 7.09681 10.7435 7.08644 10.7929 7.08197L10.912 7.55836C10.3337 7.79252 9.66651 7.79252 9.08815 7.55836L9.20724 7.08197C9.25649 7.08644 9.30417 7.09681 9.35487 7.09681ZM4.57146 2.58068C4.89663 2.58068 5.16117 2.84523 5.16117 3.1704C5.16117 3.32549 5.09824 3.47785 4.98865 3.58743L4.50378 4.07229L4.79353 7.26009C4.44546 7.392 4.12993 7.60067 3.87102 7.87358L3.87088 3.28114C3.87088 2.89504 4.18539 2.58054 4.57149 2.58054L4.57146 2.58068ZM3.54827 11.6129C3.37027 11.6129 3.22569 11.4683 3.22569 11.2903C3.22569 11.1124 3.37027 10.9678 3.54827 10.9678H3.87085V11.6129H3.54827ZM4.09566 10.3226H3.54827C3.49758 10.3226 3.4489 10.3301 3.40051 10.3374L3.25046 9.73619C3.23375 9.67067 3.22569 9.60327 3.22569 9.53645C3.22569 9.18103 3.45207 8.8671 3.78889 8.75448L4.07792 8.65828L4.13927 8.56597C4.48316 8.04984 5.0589 7.74182 5.67903 7.74182H7.13451C8.18089 7.74196 9.03213 8.59321 9.03213 9.6397C9.03213 9.84419 8.9993 10.0461 8.93435 10.2401L8.90051 10.342C8.83887 10.3294 8.77508 10.3226 8.70955 10.3226H7.29179C6.59508 10.3226 5.9198 10.1181 5.3399 9.73158L5.16118 9.61234L4.09566 10.3226ZM4.51601 10.8177L5.16637 10.3841C5.8095 10.7667 6.53994 10.9678 7.29179 10.9678H7.74182V12.5807C7.74182 13.1142 7.30764 13.5484 6.77407 13.5484H5.48375C4.95018 13.5484 4.51601 13.1142 4.51601 12.5807V10.8177ZM5.48375 14.1936H6.77407C6.82476 14.1936 6.87243 14.1832 6.92183 14.1787L7.04092 14.6551C6.46286 14.8893 5.79539 14.8893 5.21703 14.6551L5.33613 14.1787C5.38538 14.1832 5.43306 14.1936 5.48375 14.1936ZM1.3455 12.2581C1.67067 12.2581 1.93522 12.5226 1.93522 12.8478C1.93522 13.0029 1.87229 13.1553 1.76269 13.2648L1.27783 13.7497L1.3769 14.8387H0.644923V12.9587C0.644923 12.5726 0.959437 12.2581 1.34553 12.2581L1.3455 12.2581ZM2.58038 17.4194V17.9668L2.36364 18.2919C2.1891 18.5536 1.89747 18.7097 1.58296 18.7097C1.06584 18.7097 0.644897 18.2888 0.644897 17.7716V15.4839H1.43524L1.61366 17.4488L2.25624 17.39L2.1998 16.7665C2.84724 15.9329 3.76171 15.3729 4.79887 15.1767C5.21203 15.3768 5.67043 15.4839 6.12879 15.4839C6.58744 15.4839 7.04584 15.3765 7.45944 15.1769C9.47976 15.5588 10.9401 17.2953 10.9652 19.3549H9.67718V17.4195H9.03202V19.3549H6.90744L8.02523 18.2372C8.25838 18.0043 8.38684 17.694 8.38684 17.364C8.38684 16.6833 7.8327 16.1291 7.15196 16.1291C6.82233 16.1291 6.512 16.2576 6.27867 16.4907L6.12876 16.6408L5.9787 16.4907C5.74584 16.2576 5.43551 16.1291 5.10556 16.1291C4.42482 16.1291 3.87069 16.6833 3.87069 17.364C3.87069 17.6937 3.99914 18.004 4.23229 18.2373L5.35008 19.3549H3.22551V17.4195L2.58038 17.4194ZM6.12876 19.2214L4.6884 17.781C4.5788 17.6713 4.51587 17.5193 4.51587 17.364C4.51587 17.0388 4.78042 16.7743 5.10559 16.7743C5.26068 16.7743 5.41304 16.8372 5.52262 16.9468L5.90065 17.3248C6.0268 17.451 6.23071 17.451 6.35672 17.3248L6.73475 16.9468C6.84463 16.8372 6.99656 16.7743 7.15193 16.7743C7.4771 16.7743 7.74164 17.0388 7.74164 17.364C7.74164 17.5191 7.67871 17.6714 7.56912 17.781L6.12876 19.2214ZM18.4163 18.7097C18.1018 18.7097 17.8102 18.5536 17.6356 18.2919L17.4189 17.9668V17.4194H16.7737V19.3548H14.6492L15.767 18.2371C16.0001 18.0042 16.1286 17.6939 16.1286 17.3639C16.1286 16.6832 15.5744 16.129 14.8937 16.129C14.5641 16.129 14.2537 16.2575 14.0204 16.4906L13.8705 16.6407L13.7204 16.4906C13.4876 16.2575 13.1772 16.129 12.8473 16.129C12.1666 16.129 11.6124 16.6832 11.6124 17.3639C11.6124 17.6936 11.7409 18.0039 11.974 18.2372L13.0918 19.3548H11.6102C11.5977 18.1645 11.168 17.0687 10.4489 16.2152C11.0374 15.6806 11.7528 15.3252 12.5392 15.1764C12.9527 15.3764 13.4118 15.4839 13.8704 15.4839C14.3288 15.4839 14.7872 15.3767 15.2005 15.1771C16.2377 15.3733 17.1521 15.9333 17.7996 16.7668L17.7428 17.3904L18.3854 17.4492L18.564 15.4839H19.3543V17.7716C19.3543 18.2887 18.9334 18.7097 18.4163 18.7097L18.4163 18.7097ZM13.8707 19.2214L12.4303 17.781C12.3207 17.6713 12.2578 17.5193 12.2578 17.364C12.2578 17.0388 12.5224 16.7743 12.8475 16.7743C13.0026 16.7743 13.155 16.8372 13.2646 16.9468L13.6426 17.3248C13.7687 17.451 13.9726 17.451 14.0987 17.3248L14.4767 16.9468C14.5866 16.8372 14.7385 16.7743 14.8939 16.7743C15.219 16.7743 15.4836 17.0388 15.4836 17.364C15.4836 17.5191 15.4206 17.6714 15.3111 17.781L13.8707 19.2214Z" fill="black" fill-opacity="0.8"/>
<path d="M10.0334 2.40234L10.6105 2.11389L11.2556 3.40407L10.6786 3.69251L10.0334 2.40234Z" fill="black" fill-opacity="0.8"/>
<path d="M8.74304 2.40234L9.32007 2.11389L9.96524 3.40407L9.3882 3.69251L8.74304 2.40234Z" fill="black" fill-opacity="0.8"/>
</svg>
