<svg width="18" height="18" viewBox="0 0 18 18" fill="none" xmlns="http://www.w3.org/2000/svg">
<g clip-path="url(#clip0_952_202)">
<path d="M6.00001 4.5V3.9C6.00001 2.5725 6.00001 1.5 8.40001 1.5H9.60001C12 1.5 12 2.5725 12 3.9V4.5M6.00001 16.5H12C15.015 16.5 15.555 15.2925 15.7125 13.8225L16.275 7.8225C16.4775 5.9925 15.9525 4.5 12.75 4.5H5.25001C2.04751 4.5 1.52251 5.9925 1.72501 7.8225L2.28751 13.8225C2.44501 15.2925 2.98501 16.5 6.00001 16.5Z" stroke="black" stroke-width="1.5" stroke-miterlimit="10" stroke-linecap="round" stroke-linejoin="round"/>
<path d="M10.5 10.515V9.75C10.5 9 10.5 9 9.75 9H8.25C7.5 9 7.5 9 7.5 9.75V10.5225M10.5 10.515C10.5 11.3325 10.4925 12 9 12C7.515 12 7.5 11.34 7.5 10.5225M10.5 10.515C12.5732 10.2569 14.5471 9.47765 16.2375 8.25M7.5 10.5225C5.5575 10.305 3.6525 9.6075 1.965 8.4525" stroke="black" stroke-width="1.5" stroke-miterlimit="10" stroke-linecap="round" stroke-linejoin="round"/>
</g>
<defs>
<clipPath id="clip0_952_202">
<rect width="18" height="18" fill="white"/>
</clipPath>
</defs>
</svg>
